<?xml version="1.0" encoding="UTF-8"?>
<svg xmlns="http://www.w3.org/2000/svg" xmlns:xlink="http://www.w3.org/1999/xlink" width="95px" height="95px" viewBox="0 0 95 95" version="1.1">
<g id="surface1">
<path style=" stroke:none;fill-rule:nonzero;fill:rgb(0%,0%,0%);fill-opacity:1;" d="M 15.753906 55.363281 C 16.828125 54.691406 17.96875 54.464844 19.117188 54.554688 C 19.308594 54.363281 19.230469 54.210938 19.210938 54.066406 C 19.039062 52.699219 19.488281 51.574219 20.511719 50.664062 C 20.679688 50.511719 20.945312 50.394531 20.847656 50.097656 C 20.734375 49.769531 20.433594 49.84375 20.1875 49.847656 C 18.871094 49.882812 17.582031 50.113281 16.285156 50.316406 C 15.761719 50.394531 15.175781 50.566406 14.882812 49.90625 C 14.703125 49.496094 15.101562 49.007812 15.847656 48.730469 C 17.023438 48.292969 18.269531 48.164062 19.5 47.972656 C 20.589844 47.808594 20.5625 47.796875 20.511719 46.691406 C 20.363281 43.480469 20.941406 40.394531 22.285156 37.480469 C 22.660156 36.675781 22.617188 36.011719 22.328125 35.222656 C 20.914062 31.351562 20.953125 27.519531 22.824219 23.789062 C 23.566406 22.300781 24.765625 21.542969 26.46875 21.644531 C 28.957031 21.789062 31.394531 22.226562 33.675781 23.230469 C 35.191406 23.898438 36.605469 24.105469 38.253906 23.625 C 40.773438 22.890625 43.402344 22.65625 46.015625 22.433594 C 46.417969 22.398438 46.628906 22.226562 46.808594 21.894531 C 47.386719 20.835938 48.058594 19.851562 48.96875 19.027344 C 51.253906 16.953125 54.050781 17.1875 56.375 18.976562 C 56.714844 19.238281 57.078125 19.507812 57.320312 19.847656 C 57.742188 20.441406 58.144531 20.347656 58.726562 20.078125 C 61.078125 18.988281 63.535156 18.234375 66.132812 17.992188 C 67.417969 17.871094 68.4375 18.261719 69.191406 19.355469 C 70.222656 20.847656 70.671875 22.546875 71.003906 24.28125 C 71.222656 25.4375 71.507812 26.367188 72.542969 27.230469 C 74.480469 28.851562 74.550781 31.144531 73.894531 33.460938 C 73.691406 34.183594 73.429688 34.894531 73.003906 35.527344 C 72.816406 35.800781 72.8125 36.066406 72.9375 36.375 C 73.679688 38.238281 74.34375 40.121094 74.503906 42.140625 C 74.542969 42.628906 74.855469 42.710938 75.269531 42.707031 C 76.558594 42.695312 77.851562 42.699219 79.140625 42.699219 C 79.511719 42.695312 79.867188 42.742188 80.203125 42.917969 C 80.53125 43.089844 80.753906 43.308594 80.714844 43.722656 C 80.675781 44.15625 80.34375 44.21875 80.035156 44.285156 C 79.53125 44.394531 79.015625 44.433594 78.496094 44.433594 C 77.507812 44.4375 76.519531 44.414062 75.535156 44.558594 C 74.984375 44.640625 74.746094 44.882812 74.769531 45.449219 C 74.800781 46.199219 74.761719 46.953125 74.671875 47.703125 C 74.574219 48.496094 74.84375 48.808594 75.660156 48.867188 C 76.5 48.929688 77.3125 49.140625 78.140625 49.277344 C 78.433594 49.324219 78.722656 49.429688 78.996094 49.546875 C 79.292969 49.675781 79.484375 49.921875 79.445312 50.261719 C 79.40625 50.601562 79.117188 50.6875 78.835938 50.746094 C 77.71875 50.964844 76.605469 50.769531 75.496094 50.675781 C 74.453125 50.589844 74.289062 50.679688 73.992188 51.695312 C 73.804688 52.335938 73.578125 52.964844 73.335938 53.582031 C 73.023438 54.371094 73.019531 54.425781 73.8125 54.796875 C 74.886719 55.292969 75.96875 55.765625 77.046875 56.253906 C 77.300781 56.371094 77.539062 56.507812 77.695312 56.761719 C 78.058594 57.339844 77.804688 57.902344 77.125 57.984375 C 76.523438 58.058594 75.984375 57.8125 75.441406 57.613281 C 74.59375 57.304688 73.753906 56.976562 72.917969 56.632812 C 72.296875 56.375 71.863281 56.46875 71.421875 57.039062 C 69.832031 59.09375 67.804688 60.640625 65.53125 61.875 C 65.277344 62.011719 64.960938 62.066406 64.761719 62.371094 C 65.121094 62.617188 65.472656 62.855469 65.816406 63.105469 C 67.121094 64.058594 67.589844 65.628906 67.007812 67.117188 C 66.660156 68.007812 65.949219 68.449219 65.058594 68.617188 C 64.644531 68.699219 64.394531 68.886719 64.167969 69.25 C 63.503906 70.328125 62.441406 70.402344 61.324219 70.234375 C 60.335938 70.082031 60.386719 70.097656 59.960938 71.023438 C 58.625 73.941406 57.046875 76.703125 54.316406 78.566406 C 52.367188 79.894531 50.28125 80.222656 48.105469 79.09375 C 47.867188 78.972656 47.691406 78.972656 47.449219 79.097656 C 45.21875 80.242188 43.121094 79.859375 41.132812 78.488281 C 39.207031 77.164062 37.925781 75.277344 36.765625 73.300781 C 36.453125 72.769531 36.175781 72.21875 35.902344 71.710938 C 35.628906 71.699219 35.515625 71.835938 35.390625 71.949219 C 32.152344 74.871094 26.421875 74.667969 23.207031 72.429688 C 21.199219 71.035156 20.246094 69.015625 19.980469 66.648438 C 19.902344 65.953125 19.65625 65.46875 19.082031 65.0625 C 17.992188 64.292969 16.921875 63.488281 15.90625 62.632812 C 14.714844 61.628906 13.851562 60.410156 13.910156 58.761719 C 13.957031 57.355469 14.472656 56.171875 15.753906 55.363281 M 52.222656 34.640625 C 51.796875 34.707031 51.375 34.792969 50.949219 34.832031 C 48.292969 35.082031 46.113281 33.644531 45.304688 31.105469 C 44.78125 29.460938 44.816406 27.808594 45.230469 26.144531 C 45.328125 25.738281 45.515625 25.34375 45.472656 24.902344 C 45.386719 24.878906 45.324219 24.839844 45.265625 24.84375 C 42.40625 25.171875 39.539062 25.464844 36.78125 26.351562 C 36.105469 26.566406 35.476562 26.5625 34.847656 26.226562 C 34.523438 26.054688 34.199219 25.886719 33.867188 25.734375 C 31.746094 24.761719 29.566406 24.019531 27.207031 23.871094 C 25.808594 23.78125 24.992188 24.40625 24.449219 25.621094 C 23.589844 27.53125 23.46875 29.519531 23.730469 31.554688 C 23.824219 32.292969 23.960938 33.03125 24.464844 33.65625 C 24.605469 33.589844 24.703125 33.550781 24.792969 33.496094 C 25.171875 33.257812 25.566406 33.1875 25.921875 33.503906 C 26.296875 33.835938 26.304688 34.257812 26.105469 34.683594 C 25.96875 34.976562 25.808594 35.257812 25.644531 35.535156 C 23.59375 39.027344 22.550781 42.773438 22.714844 46.847656 C 22.742188 47.515625 23.039062 47.703125 23.625 47.710938 C 24.375 47.722656 25.132812 47.660156 25.871094 47.871094 C 26.25 47.980469 26.570312 48.175781 26.550781 48.613281 C 26.535156 49.066406 26.238281 49.261719 25.800781 49.351562 C 25.050781 49.507812 24.289062 49.359375 23.359375 49.507812 C 24.871094 49.605469 25.8125 50.335938 26.554688 51.378906 C 27.257812 52.371094 27.707031 53.480469 28.039062 54.652344 C 28.421875 56.011719 28.511719 56.0625 29.886719 56.109375 C 33.71875 56.230469 36.589844 58.34375 37.84375 61.980469 C 37.96875 62.347656 38.152344 62.53125 38.546875 62.613281 C 41.171875 63.136719 43.835938 63.269531 46.496094 63.320312 C 50.613281 63.398438 54.691406 63.039062 58.707031 62.0625 C 61.925781 61.28125 64.921875 60.042969 67.46875 57.878906 C 68.210938 57.25 68.972656 56.609375 69.4375 55.65625 C 69.117188 55.480469 68.847656 55.355469 68.601562 55.191406 C 68.300781 54.988281 68.070312 54.726562 68.199219 54.328125 C 68.320312 53.953125 68.605469 53.785156 68.992188 53.785156 C 69.398438 53.789062 69.808594 53.789062 70.214844 53.808594 C 70.582031 53.824219 70.835938 53.699219 70.980469 53.351562 C 71.242188 52.714844 71.542969 52.089844 71.773438 51.445312 C 72.113281 50.5 72.089844 50.492188 71.140625 50.222656 C 70.976562 50.175781 70.804688 50.128906 70.660156 50.039062 C 70.398438 49.875 70.167969 49.660156 70.21875 49.3125 C 70.273438 48.953125 70.5625 48.832031 70.871094 48.78125 C 71.1875 48.726562 71.507812 48.703125 71.828125 48.664062 C 72.28125 48.609375 72.472656 48.351562 72.539062 47.894531 C 72.636719 47.207031 72.648438 46.523438 72.640625 45.835938 C 72.632812 45.097656 72.492188 44.976562 71.746094 45.09375 C 71.152344 45.183594 70.585938 45.425781 69.980469 45.4375 C 69.5 45.449219 69.015625 45.367188 68.925781 44.8125 C 68.839844 44.289062 69.191406 43.96875 69.667969 43.824219 C 70.367188 43.609375 71.066406 43.402344 71.777344 43.230469 C 72.269531 43.109375 72.449219 42.820312 72.414062 42.34375 C 72.351562 41.59375 72.242188 40.847656 72.042969 40.121094 C 71.835938 39.371094 71.65625 38.601562 71.21875 37.871094 C 70.59375 38.46875 69.992188 38.988281 69.335938 39.4375 C 67.273438 40.863281 64.953125 40.910156 63.007812 39.550781 C 62.148438 38.949219 61.457031 38.175781 60.914062 37.292969 C 60.574219 36.742188 60.144531 36.527344 59.515625 36.449219 C 57.855469 36.242188 56.429688 35.546875 55.421875 34.160156 C 55.109375 33.726562 54.777344 33.644531 54.316406 33.871094 C 53.679688 34.191406 53.007812 34.410156 52.222656 34.640625 M 21.09375 54.324219 C 21.386719 55.738281 22.199219 57.007812 22.328125 58.488281 C 22 58.554688 21.804688 58.398438 21.601562 58.296875 C 20.734375 57.871094 19.882812 57.410156 19 57.011719 C 17.992188 56.554688 17.023438 56.734375 16.46875 57.421875 C 15.378906 58.769531 15.550781 60.050781 16.957031 61.066406 C 17.183594 61.230469 17.421875 61.382812 17.660156 61.523438 C 18.804688 62.207031 19.9375 62.90625 21.101562 63.554688 C 21.636719 63.851562 21.828125 64.214844 21.828125 64.835938 C 21.824219 67.085938 22.472656 69.09375 24.324219 70.523438 C 25.792969 71.660156 27.539062 71.894531 29.335938 71.839844 C 32.875 71.738281 35.964844 68.734375 36.148438 65.238281 C 36.304688 62.257812 34.773438 59.730469 32.164062 58.714844 C 30.839844 58.199219 29.449219 58.050781 28.042969 58.152344 C 27.480469 58.191406 27.1875 57.988281 27.011719 57.511719 C 26.765625 56.847656 26.546875 56.171875 26.289062 55.511719 C 25.886719 54.476562 25.695312 53.347656 24.996094 52.4375 C 24.34375 51.578125 23.328125 51.289062 22.285156 51.65625 C 21.414062 51.960938 21.042969 52.597656 21.0625 53.761719 C 21.0625 53.910156 21.078125 54.0625 21.09375 54.324219 M 50.929688 68.5625 C 49.546875 69.339844 48.09375 69.765625 46.488281 69.480469 C 44.8125 69.183594 43.222656 68.566406 42.488281 66.984375 C 41.839844 65.578125 40.960938 64.953125 39.480469 65.027344 C 39.417969 65.03125 39.355469 65 39.292969 64.988281 C 38.882812 64.910156 38.710938 65.035156 38.601562 65.488281 C 38.226562 67.054688 37.820312 68.621094 36.972656 70.011719 C 36.675781 70.5 36.703125 70.820312 37.109375 71.238281 C 40.890625 75.113281 45.566406 75.878906 50.65625 75.125 C 52.941406 74.785156 54.933594 73.726562 56.6875 72.242188 C 57.582031 71.488281 58.441406 70.679688 59.066406 69.589844 C 58.207031 69.132812 57.519531 68.570312 57.070312 67.753906 C 56.660156 67.011719 56.378906 66.226562 56.257812 65.390625 C 56.191406 64.914062 55.945312 64.789062 55.492188 64.878906 C 54.96875 64.988281 54.4375 65.0625 53.902344 65.128906 C 53.480469 65.179688 53.230469 65.359375 53.074219 65.792969 C 52.679688 66.910156 52.015625 67.847656 50.929688 68.5625 M 53.066406 19.757812 C 51.660156 19.585938 50.613281 20.242188 49.75 21.25 C 48 23.296875 47.144531 25.71875 46.917969 28.367188 C 46.816406 29.574219 47.03125 30.730469 47.847656 31.691406 C 49.097656 33.160156 52.695312 33.296875 54.070312 31.929688 C 54.453125 31.550781 54.414062 31.101562 53.957031 30.796875 C 53.816406 30.703125 53.65625 30.636719 53.507812 30.546875 C 51.71875 29.507812 51.425781 27.019531 52.921875 25.582031 C 53.984375 24.5625 55.316406 24.457031 56.847656 25.269531 C 57.125 25.417969 57.40625 25.683594 57.726562 25.40625 C 58.0625 25.113281 57.9375 24.742188 57.789062 24.398438 C 57.210938 23.054688 56.316406 21.9375 55.308594 20.894531 C 54.71875 20.289062 54.003906 19.925781 53.066406 19.757812 M 64.460938 38.238281 C 65.34375 38.609375 66.28125 38.753906 67.152344 38.332031 C 69.957031 36.980469 71.785156 34.792969 72.25 31.679688 C 72.609375 29.242188 71.128906 28.140625 69.371094 27.839844 C 68.253906 27.648438 67.144531 27.808594 66.074219 28.183594 C 65.242188 28.476562 65.144531 28.699219 65.367188 29.535156 C 65.445312 29.828125 65.609375 30.027344 65.882812 30.148438 C 66.285156 30.324219 66.625 30.585938 66.917969 30.902344 C 67.609375 31.628906 67.960938 32.457031 67.660156 33.484375 C 67.335938 34.570312 66.703125 35.265625 65.527344 35.4375 C 64.957031 35.523438 64.410156 35.484375 63.871094 35.347656 C 63.214844 35.183594 62.839844 35.625 62.503906 36 C 62.207031 36.332031 62.640625 36.621094 62.8125 36.882812 C 63.203125 37.464844 63.730469 37.902344 64.460938 38.238281 M 56.285156 30.433594 C 56.285156 30.539062 56.289062 30.648438 56.28125 30.753906 C 56.082031 32.828125 57.890625 34.761719 60.132812 34.652344 C 62.769531 34.519531 63.890625 31.910156 63.6875 30.183594 C 63.480469 28.433594 61.824219 27.023438 60.078125 27.023438 C 58.027344 27.019531 56.582031 28.28125 56.285156 30.433594 M 61.53125 21.332031 C 60.902344 21.609375 60.28125 21.898438 59.644531 22.152344 C 59.191406 22.332031 59.140625 22.582031 59.351562 23 C 59.601562 23.496094 59.820312 24.011719 60 24.539062 C 60.128906 24.914062 60.355469 25.078125 60.726562 25.164062 C 61.757812 25.398438 62.757812 25.714844 63.609375 26.378906 C 63.953125 26.644531 64.328125 26.605469 64.710938 26.472656 C 65.523438 26.191406 66.351562 25.980469 67.207031 25.867188 C 67.832031 25.789062 68.457031 25.691406 69.113281 25.59375 C 68.839844 23.992188 68.539062 22.484375 67.738281 21.128906 C 67.320312 20.421875 66.746094 20.148438 65.914062 20.226562 C 64.421875 20.359375 63.003906 20.742188 61.53125 21.332031 M 45.636719 67.519531 C 47.316406 68.035156 48.980469 68.0625 50.597656 67.292969 C 51.304688 66.957031 51.804688 66.4375 51.925781 65.570312 C 49.160156 65.570312 46.460938 65.570312 43.691406 65.570312 C 43.941406 66.660156 44.71875 67.09375 45.636719 67.519531 M 43.5 76.109375 C 41.988281 75.550781 40.605469 74.742188 39.15625 73.71875 C 39.785156 75.394531 40.59375 76.730469 41.929688 77.695312 C 42.925781 78.417969 44.039062 78.726562 45.269531 78.589844 C 46.117188 78.492188 46.945312 77.753906 47.097656 76.898438 C 45.902344 76.777344 44.726562 76.550781 43.5 76.109375 M 48.972656 77.71875 C 49.863281 78.800781 51.03125 78.765625 52.210938 78.453125 C 53.847656 78.015625 54.929688 76.871094 55.75 75.449219 C 56.023438 74.980469 56.339844 74.515625 56.433594 73.796875 C 54.015625 75.539062 51.472656 76.644531 48.652344 76.914062 C 48.601562 77.289062 48.769531 77.464844 48.972656 77.71875 M 65.347656 64.714844 C 65.070312 64.371094 64.726562 64.140625 64.289062 64.023438 C 63.945312 63.929688 63.71875 64 63.550781 64.324219 C 62.949219 65.464844 62.328125 66.59375 61.734375 67.734375 C 61.488281 68.214844 61.628906 68.449219 62.167969 68.523438 C 62.621094 68.585938 63.066406 68.511719 63.277344 68.0625 C 63.488281 67.621094 63.839844 67.488281 64.265625 67.351562 C 65.542969 66.945312 65.9375 66.027344 65.347656 64.714844 M 58.203125 66.28125 C 58.3125 66.984375 58.601562 67.570312 59.3125 67.976562 C 60.144531 66.515625 61.0625 65.140625 61.800781 63.628906 C 60.886719 63.15625 60.070312 63.199219 59.328125 63.695312 C 58.46875 64.269531 58.035156 65.101562 58.203125 66.28125 M 55.425781 26.542969 C 55.234375 26.523438 55.039062 26.46875 54.855469 26.492188 C 54.355469 26.558594 53.96875 26.796875 53.765625 27.28125 C 53.546875 27.796875 53.582031 28.292969 53.933594 28.734375 C 54.285156 29.175781 54.589844 29.140625 54.828125 28.640625 C 55.070312 28.136719 55.300781 27.628906 55.640625 27.183594 C 55.84375 26.917969 55.839844 26.722656 55.425781 26.542969 M 64.738281 33.746094 C 64.75 33.929688 64.859375 34.027344 65.027344 34.019531 C 65.484375 33.996094 65.847656 33.785156 66.0625 33.378906 C 66.261719 33.011719 66.214844 32.640625 65.957031 32.304688 C 65.707031 31.984375 65.488281 31.949219 65.3125 32.371094 C 65.132812 32.800781 64.941406 33.230469 64.738281 33.746094 Z M 64.738281 33.746094 "/>
<path style=" stroke:none;fill-rule:nonzero;fill:rgb(0%,0%,0%);fill-opacity:1;" d="M 51.6875 54.121094 C 51.203125 55.59375 49.867188 56.335938 48.125 56.132812 C 47.503906 56.0625 46.902344 55.917969 46.382812 55.53125 C 45.34375 54.753906 45.222656 53.296875 46.128906 52.375 C 47.242188 51.242188 49.675781 51.117188 50.886719 52.144531 C 51.476562 52.644531 51.808594 53.269531 51.6875 54.121094 M 47.644531 54.679688 C 48.320312 54.933594 48.988281 54.933594 49.640625 54.613281 C 49.953125 54.457031 50.152344 54.203125 50.152344 53.851562 C 50.15625 53.472656 49.945312 53.210938 49.609375 53.039062 C 49.011719 52.738281 48.402344 52.796875 47.789062 52.972656 C 47.417969 53.082031 47.113281 53.28125 47.042969 53.695312 C 46.96875 54.132812 47.160156 54.441406 47.644531 54.679688 Z M 47.644531 54.679688 "/>
<path style=" stroke:none;fill-rule:nonzero;fill:rgb(0%,0%,0%);fill-opacity:1;" d="M 32.765625 50.800781 C 32.71875 50.027344 32.777344 49.335938 33.09375 48.671875 C 33.441406 47.945312 34.035156 47.625 34.792969 47.609375 C 35.5625 47.597656 36.085938 48.015625 36.390625 48.703125 C 36.832031 49.710938 36.9375 50.71875 36.40625 51.738281 C 36.019531 52.484375 35.417969 52.847656 34.585938 52.808594 C 33.816406 52.773438 33.171875 52.222656 32.910156 51.417969 C 32.851562 51.234375 32.816406 51.042969 32.765625 50.800781 Z M 32.765625 50.800781 "/>
<path style=" stroke:none;fill-rule:nonzero;fill:rgb(0%,0%,0%);fill-opacity:1;" d="M 62.898438 50.339844 C 62.273438 51.6875 60.25 51.558594 59.640625 50.144531 C 59.230469 49.195312 59.164062 48.238281 59.597656 47.285156 C 59.988281 46.421875 60.621094 46.082031 61.558594 46.175781 C 62.324219 46.253906 62.859375 46.753906 63.089844 47.613281 C 63.335938 48.523438 63.378906 49.425781 62.898438 50.339844 Z M 62.898438 50.339844 "/>
<path style=" stroke:none;fill-rule:nonzero;fill:rgb(0%,0%,0%);fill-opacity:1;" d="M 32.242188 67.742188 C 31.460938 68.367188 30.675781 68.875 29.738281 69.117188 C 28.015625 69.5625 26.503906 68.9375 25.617188 67.398438 C 24.324219 65.152344 25.1875 62.800781 27.628906 61.9375 C 28.445312 61.652344 29.292969 61.519531 30.160156 61.546875 C 30.269531 61.550781 30.375 61.558594 30.484375 61.574219 C 31.148438 61.675781 31.503906 62.007812 31.480469 62.546875 C 31.457031 63.113281 31.019531 63.289062 30.566406 63.386719 C 30.023438 63.507812 29.464844 63.574219 28.921875 63.683594 C 28.519531 63.765625 28.136719 63.914062 27.789062 64.136719 C 26.855469 64.734375 26.753906 65.839844 27.566406 66.601562 C 28.417969 67.398438 29.550781 67.433594 30.503906 66.707031 C 30.933594 66.375 31.25 65.9375 31.578125 65.515625 C 31.941406 65.046875 32.398438 64.976562 32.886719 65.273438 C 33.378906 65.566406 33.414062 66.019531 33.226562 66.511719 C 33.035156 67.007812 32.664062 67.371094 32.242188 67.742188 Z M 32.242188 67.742188 "/>
</g>
</svg>
