<?xml version="1.0" encoding="UTF-8"?>
<svg xmlns="http://www.w3.org/2000/svg" xmlns:xlink="http://www.w3.org/1999/xlink" width="85px" height="86px" viewBox="0 0 85 85" version="1.1">
<g id="surface1">
<path style=" stroke:none;fill-rule:nonzero;fill:rgb(98.431373%,90.588236%,95.294118%);fill-opacity:1;" d="M 45.449219 85.113281 C 30.300781 85.113281 15.207031 85.113281 0.117188 85.113281 C 0.117188 56.78125 0.117188 28.449219 0.117188 0.113281 C 28.449219 0.113281 56.78125 0.113281 85.117188 0.113281 C 85.117188 28.449219 85.117188 56.78125 85.117188 85.113281 C 71.914062 85.113281 58.710938 85.113281 45.449219 85.113281 M 65.328125 20.460938 C 65.253906 20.414062 65.179688 20.367188 65.035156 20.300781 C 64.949219 20.261719 64.859375 20.222656 64.753906 20.105469 C 64.332031 19.902344 63.910156 19.699219 63.414062 19.496094 C 63.363281 19.496094 63.3125 19.496094 63.214844 19.445312 C 63.152344 19.429688 63.085938 19.417969 62.976562 19.332031 C 62.492188 19.167969 62.003906 19.003906 61.433594 18.828125 C 61.347656 18.824219 61.261719 18.820312 61.121094 18.746094 C 60.753906 18.699219 60.382812 18.652344 59.941406 18.597656 C 59.886719 18.597656 59.835938 18.597656 59.726562 18.53125 C 59.128906 18.546875 58.535156 18.566406 57.839844 18.582031 C 57.113281 18.695312 56.378906 18.777344 55.660156 18.925781 C 54.707031 19.125 53.714844 19.257812 52.824219 19.621094 C 51.753906 20.054688 50.761719 20.6875 49.753906 21.265625 C 49.398438 21.46875 49.132812 21.859375 48.765625 21.992188 C 48.136719 22.214844 47.753906 22.648438 47.328125 23.171875 C 46.746094 23.6875 46.164062 24.203125 45.582031 24.71875 C 45.433594 24.851562 45.285156 24.980469 45.132812 25.109375 C 45.042969 24.894531 44.941406 24.6875 44.871094 24.46875 C 44.746094 24.078125 44.640625 23.679688 44.523438 23.285156 C 44.523438 23.285156 44.527344 23.285156 44.527344 23.1875 C 44.421875 22.769531 44.382812 22.316406 44.207031 21.929688 C 43.34375 20.046875 42.214844 18.332031 40.617188 16.988281 C 39.808594 16.304688 38.929688 15.613281 37.957031 15.230469 C 36.710938 14.738281 35.351562 14.496094 34.019531 14.265625 C 33.386719 14.152344 32.703125 14.316406 31.953125 14.351562 C 31.859375 14.351562 31.769531 14.355469 31.632812 14.292969 C 31.148438 14.3125 30.648438 14.265625 30.1875 14.371094 C 29.746094 14.476562 29.34375 14.738281 28.839844 14.925781 C 28.789062 14.929688 28.734375 14.933594 28.601562 14.933594 C 28.15625 15.144531 27.699219 15.324219 27.273438 15.566406 C 26.691406 15.898438 26.136719 16.277344 25.5625 16.6875 C 25.5625 16.6875 25.554688 16.742188 25.472656 16.757812 C 24.777344 17.035156 24.230469 17.488281 23.828125 18.179688 C 23.828125 18.179688 23.820312 18.238281 23.734375 18.242188 C 23.207031 18.261719 23.246094 18.710938 23.066406 19.042969 C 23.066406 19.042969 23.011719 19.054688 22.933594 19.058594 C 22.277344 20.011719 21.601562 20.949219 20.96875 21.917969 C 20.773438 22.21875 20.707031 22.597656 20.53125 23.003906 C 20.398438 23.183594 20.21875 23.351562 20.136719 23.554688 C 19.691406 24.65625 19.234375 25.753906 18.851562 26.878906 C 18.445312 28.078125 18.097656 29.292969 17.769531 30.515625 C 17.65625 30.929688 17.714844 31.386719 17.648438 31.816406 C 17.445312 33.117188 17.132812 34.40625 17.023438 35.714844 C 16.890625 37.257812 16.925781 38.8125 16.886719 40.46875 C 16.882812 40.5625 16.890625 40.660156 16.875 40.753906 C 16.738281 41.710938 16.570312 42.667969 17.148438 43.570312 C 17.378906 43.929688 17.515625 44.347656 17.683594 44.832031 C 17.234375 46.574219 16.664062 48.296875 16.359375 50.0625 C 16.0625 51.792969 15.808594 53.566406 16.101562 55.328125 C 16.289062 56.441406 16.546875 57.578125 17 58.605469 C 17.652344 60.085938 18.769531 61.320312 19.984375 62.355469 C 21.015625 63.234375 22.265625 63.957031 23.535156 64.445312 C 25.070312 65.035156 26.730469 65.308594 28.410156 65.757812 C 28.695312 65.785156 28.976562 65.816406 29.34375 65.847656 C 29.425781 65.855469 29.511719 65.859375 29.625 65.949219 C 29.671875 65.980469 29.714844 66.039062 29.761719 66.042969 C 31.996094 66.207031 34.230469 66.363281 36.460938 66.53125 C 37.675781 66.621094 38.886719 66.761719 40.101562 66.828125 C 40.972656 66.875 41.851562 66.859375 42.722656 66.828125 C 43.21875 66.808594 43.707031 66.660156 44.199219 66.648438 C 46.210938 66.59375 48.226562 66.597656 50.234375 66.515625 C 51.398438 66.472656 52.59375 66.441406 53.707031 66.152344 C 54.65625 65.90625 55.574219 65.679688 56.648438 65.714844 C 56.925781 65.671875 57.199219 65.632812 57.566406 65.589844 C 57.882812 65.523438 58.199219 65.453125 58.609375 65.382812 C 59.855469 65.039062 61.078125 64.703125 62.230469 64.042969 C 63.65625 63.222656 64.964844 62.285156 66.152344 61.171875 C 66.394531 60.945312 66.539062 60.621094 66.808594 60.324219 C 67.675781 59.238281 68.183594 57.980469 68.574219 56.609375 C 68.574219 56.609375 68.582031 56.554688 68.664062 56.53125 C 68.75 56.289062 68.863281 56.054688 68.914062 55.804688 C 69.082031 54.953125 69.238281 54.101562 69.371094 53.242188 C 69.398438 53.054688 69.300781 52.851562 69.261719 52.554688 C 69.261719 52.320312 69.257812 52.085938 69.265625 51.746094 C 69.15625 50.75 69.0625 49.757812 68.933594 48.765625 C 68.90625 48.566406 68.769531 48.375 68.6875 48.097656 C 68.683594 48.011719 68.675781 47.925781 68.683594 47.75 C 68.644531 47.589844 68.605469 47.425781 68.566406 47.1875 C 68.566406 47.136719 68.5625 47.085938 68.566406 46.941406 C 68.421875 46.46875 68.277344 45.992188 68.128906 45.449219 C 68.121094 45.402344 68.113281 45.359375 68.109375 45.21875 C 67.839844 44.386719 67.546875 43.558594 67.304688 42.714844 C 67.25 42.515625 67.285156 42.175781 67.417969 42.050781 C 67.816406 41.675781 68.300781 41.394531 68.71875 41.039062 C 69.558594 40.335938 70.050781 39.390625 70.527344 38.347656 C 70.53125 38.296875 70.53125 38.246094 70.59375 38.15625 C 70.578125 38.054688 70.5625 37.953125 70.550781 37.78125 C 70.550781 37.734375 70.550781 37.6875 70.632812 37.609375 C 70.71875 37.15625 70.804688 36.703125 70.898438 36.167969 C 70.902344 36.085938 70.902344 36.003906 70.988281 35.890625 C 71.070312 35.585938 71.210938 35.285156 71.214844 34.980469 C 71.21875 34.675781 71.089844 34.367188 71.015625 33.976562 C 71.015625 33.890625 71.015625 33.808594 71.070312 33.664062 C 70.984375 32.527344 70.90625 31.394531 70.804688 30.261719 C 70.792969 30.144531 70.640625 30.039062 70.554688 29.855469 C 70.554688 29.808594 70.554688 29.761719 70.609375 29.648438 C 70.550781 29.398438 70.492188 29.152344 70.429688 28.820312 C 70.421875 28.734375 70.414062 28.652344 70.417969 28.472656 C 70.015625 27.253906 69.636719 26.03125 69.199219 24.824219 C 69.074219 24.472656 68.792969 24.175781 68.578125 23.859375 C 68.578125 23.859375 68.582031 23.855469 68.570312 23.777344 C 67.953125 22.6875 67.222656 21.695312 66.097656 20.992188 C 66.097656 20.992188 66.042969 20.984375 66.035156 20.902344 C 65.804688 20.78125 65.570312 20.65625 65.339844 20.53125 C 65.339844 20.53125 65.339844 20.535156 65.328125 20.460938 M 58.019531 67.113281 C 58.191406 67.15625 58.359375 67.195312 58.53125 67.238281 C 58.527344 67.042969 58.550781 66.84375 58.515625 66.65625 C 58.476562 66.464844 58.378906 66.28125 58.34375 66.191406 C 57.992188 66.226562 57.710938 66.253906 57.296875 66.292969 C 57.363281 66.605469 57.417969 66.9375 57.511719 67.257812 C 57.535156 67.332031 57.6875 67.371094 57.777344 67.425781 C 57.832031 67.320312 57.886719 67.210938 57.9375 67.105469 C 57.9375 67.105469 57.9375 67.105469 58.019531 67.113281 M 75.304688 37.886719 C 75.75 38.566406 76.199219 39.25 76.648438 39.933594 C 77.019531 40.503906 77.804688 40.761719 78.4375 40.46875 C 79.722656 39.875 80.914062 39.117188 81.839844 38.035156 C 82.226562 37.585938 82.589844 37.046875 82.753906 36.488281 C 83.121094 35.253906 82.546875 34.671875 81.257812 34.550781 C 80.480469 34.472656 79.816406 34.855469 79.246094 35.371094 C 79.011719 35.582031 78.789062 35.804688 78.613281 35.972656 C 78.207031 35.390625 77.902344 34.808594 77.457031 34.363281 C 76.902344 33.808594 76.148438 33.847656 75.453125 34.089844 C 74.921875 34.277344 74.8125 34.773438 74.6875 35.277344 C 74.445312 36.234375 74.847656 37.015625 75.304688 37.886719 M 8.5625 59.1875 C 8.964844 58.996094 9.578125 58.902344 9.730469 58.589844 C 10.511719 57 10.773438 55.308594 10.285156 53.558594 C 10.160156 53.109375 9.527344 52.679688 9 52.660156 C 8.421875 52.636719 7.574219 53.050781 7.433594 53.441406 C 7.21875 54.035156 7.019531 54.632812 6.804688 55.253906 C 6.8125 55.25 6.769531 55.277344 6.742188 55.265625 C 5.871094 54.890625 5.003906 55.136719 4.148438 55.3125 C 4.015625 55.335938 3.894531 55.507812 3.808594 55.636719 C 3.378906 56.273438 3.773438 56.875 3.929688 57.476562 C 3.976562 57.65625 4.105469 57.84375 4.253906 57.96875 C 5.46875 58.992188 6.953125 59.136719 8.5625 59.1875 M 63.882812 65.492188 C 64.050781 65.347656 64.222656 65.203125 64.390625 65.0625 C 64.609375 64.875 64.808594 64.5625 65.046875 64.53125 C 65.640625 64.449219 65.859375 64.191406 65.734375 63.714844 C 66.21875 63.515625 66.660156 63.328125 67.105469 63.144531 C 67.109375 63.066406 67.117188 62.988281 67.121094 62.910156 C 66.84375 62.746094 66.558594 62.59375 66.292969 62.417969 C 65.882812 62.144531 65.683594 62.191406 65.515625 62.648438 C 65.453125 62.820312 65.421875 63.003906 65.378906 63.179688 C 65.335938 63.140625 65.296875 63.101562 65.253906 63.0625 C 64.984375 63.257812 64.585938 63.402344 64.46875 63.667969 C 64.316406 64.019531 64.234375 64.140625 63.824219 64.042969 C 63.339844 63.925781 62.988281 64.347656 63.199219 64.75 C 63.34375 65.027344 63.59375 65.246094 63.882812 65.492188 M 54.25 67.71875 C 54.558594 67.75 54.910156 67.886719 55.167969 67.789062 C 55.511719 67.660156 55.40625 67.335938 55.222656 67.066406 C 55.164062 66.980469 55.214844 66.820312 55.15625 66.738281 C 55.042969 66.578125 54.832031 66.304688 54.757812 66.332031 C 54.523438 66.417969 54.226562 66.585938 54.15625 66.789062 C 54.070312 67.03125 54.195312 67.34375 54.25 67.71875 M 61.621094 65.804688 C 61.464844 65.546875 61.308594 65.285156 61.148438 65.027344 C 61.101562 65.054688 61.054688 65.082031 61.007812 65.113281 C 60.960938 65.265625 60.917969 65.417969 60.871094 65.574219 C 60.675781 65.503906 60.523438 65.449219 60.371094 65.394531 C 60.171875 65.996094 60.320312 66.449219 60.78125 66.695312 C 60.800781 66.617188 60.8125 66.542969 60.832031 66.472656 C 60.855469 66.386719 60.882812 66.304688 60.90625 66.21875 C 61.742188 66.457031 61.757812 66.449219 61.621094 65.804688 M 62.851562 65.617188 C 62.996094 65.691406 63.136719 65.765625 63.277344 65.839844 C 63.328125 65.777344 63.375 65.710938 63.421875 65.648438 C 63.078125 65.324219 62.742188 64.984375 62.378906 64.679688 C 62.308594 64.621094 62.070312 64.652344 61.996094 64.726562 C 61.742188 64.976562 61.867188 65.878906 62.097656 66.070312 C 62.339844 65.894531 62.5625 65.730469 62.851562 65.617188 M 55.855469 67.0625 C 55.882812 67.261719 55.910156 67.464844 55.933594 67.625 C 56.207031 67.515625 56.390625 67.410156 56.585938 67.375 C 56.726562 67.351562 56.882812 67.425781 57.035156 67.457031 C 57.003906 67.261719 57 67.058594 56.929688 66.878906 C 56.863281 66.707031 56.730469 66.554688 56.609375 66.40625 C 56.339844 66.078125 56.117188 66.117188 55.960938 66.523438 C 55.910156 66.664062 55.890625 66.816406 55.855469 67.0625 M 59.433594 65.691406 C 58.914062 65.8125 58.769531 66.617188 59.195312 67.085938 C 59.304688 66.941406 59.414062 66.804688 59.515625 66.671875 C 59.71875 66.75 59.878906 66.8125 60.042969 66.871094 C 60.097656 66.820312 60.152344 66.769531 60.207031 66.714844 C 59.96875 66.394531 59.734375 66.070312 59.433594 65.691406 Z M 59.433594 65.691406 "/>
<path style=" stroke:none;fill-rule:nonzero;fill:rgb(89.803922%,69.411767%,74.509805%);fill-opacity:1;" d="M 56.550781 65.703125 C 55.574219 65.679688 54.65625 65.90625 53.707031 66.152344 C 52.59375 66.441406 51.398438 66.472656 50.234375 66.515625 C 48.226562 66.597656 46.210938 66.59375 44.199219 66.648438 C 43.707031 66.660156 43.21875 66.808594 42.722656 66.828125 C 41.851562 66.859375 40.972656 66.875 40.101562 66.828125 C 38.886719 66.761719 37.675781 66.621094 36.460938 66.53125 C 34.230469 66.363281 31.996094 66.207031 29.761719 66.042969 C 29.714844 66.039062 29.671875 65.980469 29.613281 65.867188 C 29.550781 65.703125 29.5 65.625 29.449219 65.546875 C 29.386719 65.648438 29.324219 65.746094 29.257812 65.847656 C 28.976562 65.816406 28.695312 65.785156 28.367188 65.699219 C 28.160156 65.324219 28.113281 64.875 27.558594 65.015625 C 27.5 65.027344 27.410156 64.917969 27.335938 64.867188 C 27.078125 64.699219 26.835938 64.511719 26.566406 64.371094 C 26.222656 64.191406 25.851562 64.0625 25.503906 63.886719 C 25.273438 63.769531 25.003906 63.660156 24.84375 63.46875 C 24.289062 62.792969 23.191406 62.574219 23.113281 61.449219 C 22.566406 60.480469 21.859375 59.597656 21.566406 58.59375 C 21.285156 57.628906 21.332031 56.53125 21.425781 55.511719 C 21.519531 54.46875 21.78125 53.433594 22.085938 52.425781 C 22.355469 51.535156 22.785156 50.691406 23.136719 49.824219 C 23.199219 49.671875 23.214844 49.5 23.296875 49.332031 C 23.855469 49.144531 24.414062 49.035156 24.875 48.765625 C 25.84375 48.203125 26.488281 47.367188 26.75 46.257812 C 26.777344 46.140625 26.949219 46.058594 27.101562 45.96875 C 27.347656 45.910156 27.550781 45.835938 27.800781 45.765625 C 28.128906 45.726562 28.402344 45.683594 28.714844 45.640625 C 28.8125 45.574219 28.878906 45.507812 28.980469 45.441406 C 29.34375 45.214844 29.683594 45.015625 29.976562 44.765625 C 30.46875 44.347656 30.9375 43.902344 31.164062 43.246094 C 31.839844 43.054688 32.472656 42.890625 33.097656 42.691406 C 33.917969 42.429688 34.722656 42.085938 35.558594 41.886719 C 36.707031 41.609375 37.878906 41.402344 39.046875 41.222656 C 39.898438 41.09375 40.761719 40.964844 41.617188 40.992188 C 42.800781 41.03125 43.980469 41.222656 45.164062 41.335938 C 45.6875 41.386719 46.21875 41.363281 46.738281 41.441406 C 47.738281 41.597656 48.730469 41.820312 49.730469 41.980469 C 51.378906 42.246094 52.980469 42.679688 54.433594 43.507812 C 55.605469 44.175781 56.730469 44.925781 57.871094 45.648438 C 59.425781 46.640625 60.5 48.078125 61.410156 49.621094 C 61.90625 50.457031 62.1875 51.417969 62.585938 52.3125 C 63.328125 53.992188 63.03125 55.757812 62.925781 57.480469 C 62.878906 58.257812 62.472656 59.027344 62.144531 59.761719 C 61.84375 60.4375 61.425781 61.066406 61.023438 61.734375 C 60.898438 61.910156 60.800781 62.066406 60.714844 62.222656 C 60.5 62.617188 60.382812 63.148438 60.054688 63.371094 C 59.441406 63.777344 58.8125 64.226562 58 64.261719 C 57.492188 64.285156 57.046875 64.972656 57.121094 65.394531 C 56.917969 65.503906 56.734375 65.601562 56.550781 65.703125 M 26.023438 61.007812 C 26.320312 61.269531 26.601562 61.554688 26.921875 61.792969 C 27.691406 62.363281 28.535156 62.792969 29.542969 63.03125 C 29.988281 63.195312 30.421875 63.429688 30.882812 63.503906 C 31.839844 63.660156 32.816406 63.726562 33.78125 63.84375 C 35.136719 64.007812 36.453125 64.460938 37.851562 64.359375 C 38.488281 64.3125 39.140625 64.410156 39.78125 64.460938 C 40.371094 64.507812 40.988281 64.726562 41.535156 64.605469 C 43.386719 64.195312 45.257812 64.308594 47.117188 64.265625 C 48.734375 64.226562 50.355469 64.394531 51.953125 64.015625 C 52.871094 63.792969 53.789062 63.554688 54.796875 63.324219 C 54.980469 63.28125 55.179688 63.269531 55.351562 63.191406 C 56.015625 62.886719 56.664062 62.539062 57.335938 62.242188 C 58.28125 61.816406 59.023438 61.226562 59.296875 60.117188 C 59.972656 59.511719 60.226562 58.679688 60.601562 57.890625 C 61.152344 56.726562 61.1875 55.515625 60.953125 54.351562 C 60.742188 53.300781 60.226562 52.292969 59.738281 51.320312 C 59.199219 50.242188 58.570312 49.210938 57.582031 48.433594 C 55.546875 46.835938 53.488281 45.285156 50.945312 44.546875 C 50.652344 44.460938 50.371094 44.332031 50.070312 44.28125 C 48.90625 44.078125 47.738281 43.851562 46.5625 43.722656 C 45.519531 43.605469 44.464844 43.613281 43.417969 43.542969 C 42.816406 43.503906 42.21875 43.417969 41.621094 43.347656 C 41.46875 43.332031 41.320312 43.257812 41.175781 43.269531 C 38.878906 43.453125 36.625 43.859375 34.460938 44.648438 C 33.027344 45.167969 31.648438 45.835938 30.21875 46.355469 C 29.507812 46.617188 29.003906 47.132812 28.386719 47.492188 C 27.347656 48.097656 26.515625 48.921875 25.878906 49.882812 C 24.789062 51.519531 24.105469 53.328125 23.78125 55.300781 C 23.558594 56.679688 23.566406 57.976562 24.316406 59.140625 C 24.75 59.816406 25.429688 60.339844 26.023438 61.007812 Z M 26.023438 61.007812 "/>
<path style=" stroke:none;fill-rule:nonzero;fill:rgb(90.196079%,68.627453%,74.509805%);fill-opacity:1;" d="M 63.023438 19.402344 C 63.085938 19.417969 63.152344 19.429688 63.238281 19.515625 C 63.296875 19.980469 63.328125 20.378906 63.375 20.773438 C 63.4375 21.300781 63.207031 21.5625 62.625 21.566406 C 61.703125 21.621094 60.890625 21.40625 60.054688 21.175781 C 59.261719 20.957031 58.398438 20.9375 57.5625 20.921875 C 56.917969 20.910156 56.269531 21.039062 55.621094 21.070312 C 55.417969 20.875 55.367188 20.902344 55.246094 21.234375 C 55.117188 21.277344 55.023438 21.308594 54.925781 21.292969 C 54.550781 20.792969 54.125 20.976562 53.695312 21.132812 C 53.378906 21.246094 53.058594 21.351562 52.734375 21.449219 C 52.519531 21.511719 52.269531 21.507812 52.078125 21.613281 C 51.128906 22.140625 50.203125 22.710938 49.25 23.234375 C 48.660156 23.554688 48.03125 23.800781 47.433594 24.105469 C 47.3125 24.167969 47.21875 24.328125 47.160156 24.46875 C 46.988281 24.875 47.070312 25.449219 46.425781 25.550781 C 46.363281 25.5625 46.332031 25.707031 46.28125 25.789062 C 46.105469 26.058594 45.929688 26.324219 45.757812 26.59375 C 45.367188 27.203125 44.972656 27.808594 44.601562 28.425781 C 44.355469 28.839844 44.121094 29.261719 43.925781 29.699219 C 43.746094 30.101562 43.515625 30.53125 43.511719 30.949219 C 43.507812 31.4375 43.472656 31.875 43.253906 32.308594 C 43.179688 32.457031 43.117188 32.648438 43.148438 32.800781 C 43.261719 33.359375 43.375 33.894531 42.730469 34.230469 C 42.695312 34.25 42.703125 34.339844 42.675781 34.390625 C 42.554688 34.613281 42.429688 34.832031 42.300781 35.050781 C 42.238281 34.777344 42.160156 34.507812 42.113281 34.230469 C 42.097656 34.144531 42.207031 34.03125 42.179688 33.960938 C 42.097656 33.757812 41.972656 33.574219 41.863281 33.34375 C 41.863281 33.253906 41.867188 33.203125 41.90625 33.144531 C 42.488281 32.753906 42.652344 32.046875 42.324219 31.507812 C 42.324219 31.417969 42.328125 31.367188 42.363281 31.308594 C 42.414062 31.191406 42.429688 31.082031 42.441406 30.925781 C 42.519531 30.71875 42.59375 30.558594 42.710938 30.386719 C 42.804688 30.195312 42.855469 30.007812 42.902344 29.785156 C 42.902344 29.695312 42.90625 29.644531 42.949219 29.59375 C 43.113281 29.535156 43.234375 29.480469 43.351562 29.421875 C 43.28125 29.289062 43.207031 29.15625 43.136719 28.972656 C 42.882812 27.566406 42.734375 26.183594 42.34375 24.871094 C 41.960938 23.574219 41.417969 22.304688 40.792969 21.101562 C 40.082031 19.730469 38.992188 18.628906 37.65625 17.847656 C 36.335938 17.078125 34.832031 16.84375 33.320312 16.753906 C 31.933594 16.675781 30.578125 16.886719 29.226562 17.289062 C 28.976562 17.273438 28.753906 17.285156 28.535156 17.308594 C 28.144531 17.351562 27.9375 17.207031 27.859375 16.804688 C 27.804688 16.507812 27.640625 16.230469 27.542969 15.90625 C 28.042969 15.683594 28.457031 15.421875 28.679688 14.9375 C 28.734375 14.933594 28.789062 14.929688 28.914062 14.957031 C 29.625 14.863281 30.269531 14.746094 30.90625 14.609375 C 31.171875 14.550781 31.421875 14.445312 31.679688 14.359375 C 31.769531 14.355469 31.859375 14.351562 32.03125 14.382812 C 32.855469 14.464844 33.597656 14.511719 34.339844 14.570312 C 34.777344 14.605469 35.273438 14.550781 35.640625 14.734375 C 36.386719 15.109375 37.179688 15.378906 37.917969 15.730469 C 38.820312 16.160156 39.785156 16.589844 40.480469 17.414062 C 41.304688 18.386719 42.324219 19.199219 42.917969 20.351562 C 43.28125 21.050781 43.671875 21.765625 43.859375 22.523438 C 43.972656 22.96875 44.167969 23.148438 44.527344 23.285156 C 44.527344 23.285156 44.523438 23.285156 44.523438 23.335938 C 44.523438 23.582031 44.492188 23.777344 44.53125 23.960938 C 44.628906 24.414062 44.742188 24.867188 44.886719 25.304688 C 44.921875 25.417969 45.113281 25.566406 45.203125 25.550781 C 45.339844 25.53125 45.464844 25.386719 45.566406 25.269531 C 45.6875 25.128906 45.746094 24.875 45.886719 24.824219 C 46.710938 24.539062 47.015625 23.8125 47.410156 23.160156 C 47.753906 22.648438 48.136719 22.214844 48.765625 21.992188 C 49.132812 21.859375 49.398438 21.46875 49.753906 21.265625 C 50.761719 20.6875 51.753906 20.054688 52.824219 19.621094 C 53.714844 19.257812 54.707031 19.125 55.660156 18.925781 C 56.378906 18.777344 57.113281 18.695312 57.914062 18.613281 C 58.199219 18.691406 58.414062 18.789062 58.621094 18.773438 C 59.011719 18.75 59.398438 18.660156 59.785156 18.597656 C 59.835938 18.597656 59.886719 18.597656 59.992188 18.640625 C 60.417969 18.726562 60.796875 18.769531 61.175781 18.816406 C 61.261719 18.820312 61.347656 18.824219 61.484375 18.871094 C 61.992188 19.199219 62.425781 19.546875 63.023438 19.402344 M 57.789062 19.960938 C 58.589844 20.171875 59.355469 20.089844 60.085938 19.667969 C 59.125 19.179688 58.152344 19.570312 57.1875 19.507812 C 57.175781 19.574219 57.164062 19.640625 57.152344 19.707031 C 57.332031 19.789062 57.515625 19.871094 57.789062 19.960938 Z M 57.789062 19.960938 "/>
<path style=" stroke:none;fill-rule:nonzero;fill:rgb(90.980393%,70.588237%,76.078433%);fill-opacity:1;" d="M 27.523438 15.945312 C 27.640625 16.230469 27.804688 16.507812 27.859375 16.804688 C 27.9375 17.207031 28.144531 17.351562 28.535156 17.308594 C 28.753906 17.285156 28.976562 17.273438 29.203125 17.320312 C 28.699219 17.644531 28.191406 17.898438 27.683594 18.160156 C 26.257812 18.882812 25.179688 20.015625 24.257812 21.257812 C 23.511719 22.257812 22.878906 23.375 22.382812 24.519531 C 21.660156 26.191406 21.03125 27.914062 20.503906 29.65625 C 20.109375 30.953125 19.832031 32.300781 19.683594 33.644531 C 19.472656 35.566406 19.425781 37.507812 19.257812 39.445312 C 18.8125 39.550781 18.398438 39.609375 18.023438 39.757812 C 17.628906 39.914062 17.265625 40.15625 16.886719 40.363281 C 16.925781 38.8125 16.890625 37.257812 17.023438 35.714844 C 17.132812 34.40625 17.445312 33.117188 17.648438 31.816406 C 17.714844 31.386719 17.65625 30.929688 17.769531 30.515625 C 18.097656 29.292969 18.445312 28.078125 18.851562 26.878906 C 19.234375 25.753906 19.691406 24.65625 20.136719 23.554688 C 20.21875 23.351562 20.398438 23.183594 20.597656 22.96875 C 20.832031 22.789062 21.054688 22.675781 21.148438 22.5 C 21.578125 21.6875 21.96875 20.855469 22.378906 20.035156 C 22.402344 19.988281 22.480469 19.972656 22.507812 19.925781 C 22.679688 19.636719 22.84375 19.347656 23.011719 19.054688 C 23.011719 19.054688 23.066406 19.042969 23.136719 19.042969 C 23.6875 18.976562 23.695312 18.5625 23.820312 18.238281 C 23.820312 18.238281 23.828125 18.179688 23.875 18.152344 C 24.457031 17.753906 24.992188 17.390625 25.515625 17.011719 C 25.566406 16.972656 25.542969 16.835938 25.554688 16.742188 C 25.554688 16.742188 25.5625 16.6875 25.609375 16.660156 C 25.992188 16.515625 26.328125 16.402344 26.660156 16.28125 C 26.949219 16.171875 27.234375 16.058594 27.523438 15.945312 Z M 27.523438 15.945312 "/>
<path style=" stroke:none;fill-rule:nonzero;fill:rgb(90.980393%,70.588237%,76.078433%);fill-opacity:1;" d="M 23.132812 61.484375 C 23.191406 62.574219 24.289062 62.792969 24.84375 63.46875 C 25.003906 63.660156 25.273438 63.769531 25.503906 63.886719 C 25.851562 64.0625 26.222656 64.191406 26.566406 64.371094 C 26.835938 64.511719 27.078125 64.699219 27.335938 64.867188 C 27.410156 64.917969 27.5 65.027344 27.558594 65.015625 C 28.113281 64.875 28.160156 65.324219 28.328125 65.679688 C 26.730469 65.308594 25.070312 65.035156 23.535156 64.445312 C 22.265625 63.957031 21.015625 63.234375 19.984375 62.355469 C 18.769531 61.320312 17.652344 60.085938 17 58.605469 C 16.546875 57.578125 16.289062 56.441406 16.101562 55.328125 C 15.808594 53.566406 16.0625 51.792969 16.359375 50.0625 C 16.664062 48.296875 17.234375 46.574219 17.734375 44.785156 C 17.9375 44.804688 18.089844 44.875 18.246094 44.933594 C 18.714844 45.105469 19.183594 45.269531 19.65625 45.484375 C 19.367188 46.441406 19.042969 47.34375 18.800781 48.265625 C 18.578125 49.113281 18.359375 49.976562 18.292969 50.847656 C 18.207031 52.015625 18.28125 53.195312 18.269531 54.367188 C 18.257812 55.644531 18.816406 56.769531 19.347656 57.855469 C 19.988281 59.152344 21.078125 60.148438 22.203125 61.0625 C 22.457031 61.269531 22.820312 61.347656 23.132812 61.484375 Z M 23.132812 61.484375 "/>
<path style=" stroke:none;fill-rule:nonzero;fill:rgb(90.980393%,70.588237%,76.078433%);fill-opacity:1;" d="M 62.675781 21.566406 C 63.207031 21.5625 63.4375 21.300781 63.375 20.773438 C 63.328125 20.378906 63.296875 19.980469 63.261719 19.539062 C 63.3125 19.496094 63.363281 19.496094 63.472656 19.527344 C 63.949219 19.769531 64.359375 19.976562 64.773438 20.183594 C 64.859375 20.222656 64.949219 20.261719 65.078125 20.34375 C 65.191406 20.4375 65.265625 20.484375 65.339844 20.535156 C 65.339844 20.535156 65.339844 20.53125 65.34375 20.574219 C 65.582031 20.738281 65.8125 20.863281 66.042969 20.984375 C 66.042969 20.984375 66.097656 20.992188 66.121094 21.039062 C 66.183594 21.195312 66.1875 21.328125 66.253906 21.40625 C 66.914062 22.191406 67.585938 22.972656 68.261719 23.742188 C 68.328125 23.816406 68.472656 23.820312 68.582031 23.855469 C 68.582031 23.855469 68.578125 23.859375 68.578125 23.90625 C 68.691406 24.28125 68.792969 24.617188 68.917969 24.941406 C 69.019531 25.203125 69.183594 25.445312 69.265625 25.710938 C 69.527344 26.570312 69.753906 27.441406 70.027344 28.296875 C 70.066406 28.414062 70.277344 28.476562 70.40625 28.566406 C 70.414062 28.652344 70.421875 28.734375 70.429688 28.910156 C 70.46875 29.238281 70.511719 29.476562 70.554688 29.714844 C 70.554688 29.761719 70.554688 29.808594 70.550781 29.941406 C 70.585938 30.660156 70.597656 31.292969 70.675781 31.921875 C 70.753906 32.527344 70.898438 33.125 71.015625 33.726562 C 71.015625 33.808594 71.015625 33.890625 70.996094 34.058594 C 70.953125 34.738281 70.929688 35.328125 70.90625 35.921875 C 70.902344 36.003906 70.902344 36.085938 70.863281 36.234375 C 70.734375 36.667969 70.640625 37.03125 70.503906 37.402344 C 70.382812 37.488281 70.3125 37.617188 70.222656 37.636719 C 69.367188 37.792969 69.445312 38.296875 69.730469 38.929688 C 69.496094 39.324219 69.269531 39.679688 69 40.039062 C 68.484375 40.269531 68.335938 39.832031 68.410156 39.617188 C 68.617188 39.027344 68.484375 38.316406 69.050781 37.839844 C 69.507812 37.457031 69.417969 36.664062 68.929688 36.199219 C 68.914062 34.695312 69 33.226562 68.835938 31.785156 C 68.707031 30.621094 68.289062 29.488281 67.980469 28.34375 C 67.824219 27.777344 67.699219 27.183594 67.429688 26.675781 C 66.976562 25.828125 66.433594 25.027344 65.886719 24.234375 C 65.632812 23.863281 65.238281 23.578125 64.992188 23.199219 C 64.589844 22.578125 63.910156 22.4375 63.324219 22.128906 C 63.078125 21.996094 62.890625 21.757812 62.675781 21.566406 Z M 62.675781 21.566406 "/>
<path style=" stroke:none;fill-rule:nonzero;fill:rgb(93.333334%,71.764708%,80.784315%);fill-opacity:1;" d="M 75.285156 37.847656 C 74.847656 37.015625 74.445312 36.234375 74.6875 35.277344 C 74.8125 34.773438 74.921875 34.277344 75.453125 34.089844 C 76.148438 33.847656 76.902344 33.808594 77.457031 34.363281 C 77.902344 34.808594 78.207031 35.390625 78.613281 35.972656 C 78.789062 35.804688 79.011719 35.582031 79.246094 35.371094 C 79.816406 34.855469 80.480469 34.472656 81.257812 34.550781 C 82.546875 34.671875 83.121094 35.253906 82.753906 36.488281 C 82.589844 37.046875 82.226562 37.585938 81.839844 38.035156 C 80.914062 39.117188 79.722656 39.875 78.4375 40.46875 C 77.804688 40.761719 77.019531 40.503906 76.648438 39.933594 C 76.199219 39.25 75.75 38.566406 75.285156 37.847656 Z M 75.285156 37.847656 "/>
<path style=" stroke:none;fill-rule:nonzero;fill:rgb(90.980393%,70.588237%,76.078433%);fill-opacity:1;" d="M 56.597656 65.707031 C 56.734375 65.601562 56.917969 65.503906 57.121094 65.394531 C 57.046875 64.972656 57.492188 64.285156 58 64.261719 C 58.8125 64.226562 59.441406 63.777344 60.054688 63.371094 C 60.382812 63.148438 60.5 62.617188 60.714844 62.222656 C 60.800781 62.066406 60.898438 61.910156 61.050781 61.761719 C 61.21875 61.761719 61.34375 61.785156 61.425781 61.734375 C 62.65625 61 63.871094 60.25 64.871094 59.203125 C 65.84375 58.1875 66.519531 57.003906 66.714844 55.625 C 66.882812 54.453125 66.882812 53.261719 67.003906 52.078125 C 67.132812 52.105469 67.257812 52.105469 67.308594 52.164062 C 67.554688 52.449219 67.863281 52.605469 68.199219 52.40625 C 68.476562 52.242188 68.6875 51.960938 68.960938 51.746094 C 69.078125 51.792969 69.167969 51.820312 69.253906 51.851562 C 69.257812 52.085938 69.261719 52.320312 69.21875 52.617188 C 69.128906 52.792969 69.050781 52.910156 69.046875 53.027344 C 69.003906 54.066406 69.105469 55.125 68.605469 56.105469 C 68.542969 56.226562 68.585938 56.402344 68.582031 56.554688 C 68.582031 56.554688 68.574219 56.609375 68.53125 56.648438 C 68.199219 57.132812 67.90625 57.574219 67.632812 58.027344 C 67.566406 58.136719 67.578125 58.285156 67.53125 58.40625 C 67.375 58.804688 67.207031 59.199219 67.042969 59.597656 C 66.941406 59.847656 66.835938 60.09375 66.730469 60.339844 C 66.539062 60.621094 66.394531 60.945312 66.152344 61.171875 C 64.964844 62.285156 63.65625 63.222656 62.230469 64.042969 C 61.078125 64.703125 59.855469 65.039062 58.53125 65.351562 C 58.113281 65.363281 57.648438 64.960938 57.476562 65.59375 C 57.199219 65.632812 56.925781 65.671875 56.597656 65.707031 Z M 56.597656 65.707031 "/>
<path style=" stroke:none;fill-rule:nonzero;fill:rgb(99.215686%,98.823529%,94.509804%);fill-opacity:1;" d="M 19.652344 45.4375 C 19.183594 45.269531 18.714844 45.105469 18.246094 44.933594 C 18.089844 44.875 17.9375 44.804688 17.738281 44.742188 C 17.515625 44.347656 17.378906 43.929688 17.148438 43.570312 C 16.570312 42.667969 16.738281 41.710938 16.875 40.753906 C 16.890625 40.660156 16.882812 40.5625 16.886719 40.414062 C 17.265625 40.15625 17.628906 39.914062 18.023438 39.757812 C 18.398438 39.609375 18.8125 39.550781 19.296875 39.445312 C 19.675781 39.410156 19.964844 39.339844 20.25 39.355469 C 20.871094 39.394531 21.207031 39.207031 21.253906 38.617188 C 21.355469 37.320312 22.113281 36.4375 23.203125 35.960938 C 23.78125 35.710938 24.664062 35.722656 25.242188 35.980469 C 26.53125 36.558594 27.0625 37.785156 27.28125 39.121094 C 27.40625 39.910156 27.390625 39.835938 28.207031 39.945312 C 28.882812 40.035156 29.667969 40.183594 30.15625 40.59375 C 30.917969 41.238281 31.378906 42.160156 31.121094 43.25 C 30.9375 43.902344 30.46875 44.347656 29.976562 44.765625 C 29.683594 45.015625 29.34375 45.214844 28.941406 45.4375 C 28.800781 45.507812 28.738281 45.574219 28.679688 45.644531 C 28.402344 45.683594 28.128906 45.726562 27.777344 45.738281 C 27.347656 45.4375 27.148438 45.5625 27.054688 45.957031 C 26.949219 46.058594 26.777344 46.140625 26.75 46.257812 C 26.488281 47.367188 25.84375 48.203125 24.875 48.765625 C 24.414062 49.035156 23.855469 49.144531 23.25 49.328125 C 22.683594 49.152344 22.148438 49.066406 21.753906 48.785156 C 20.929688 48.195312 20.742188 47.261719 20.707031 46.316406 C 20.675781 45.394531 20.695312 45.394531 19.769531 45.429688 C 19.730469 45.429688 19.691406 45.433594 19.652344 45.4375 M 22.667969 38.980469 C 22.628906 39.179688 22.589844 39.375 22.46875 39.539062 C 21.996094 39.398438 21.574219 39.394531 21.230469 39.847656 C 21.148438 39.953125 20.8125 40.007812 20.695312 39.933594 C 20.125 39.550781 19.625 39.835938 19.125 40.058594 C 19.011719 40.109375 18.933594 40.316406 18.90625 40.464844 C 18.777344 41.253906 18.671875 42.046875 18.554688 42.835938 C 18.359375 42.675781 18.238281 42.5 18.21875 42.3125 C 18.171875 41.878906 18.199219 41.433594 18.144531 41 C 18.121094 40.792969 17.980469 40.597656 17.894531 40.394531 C 17.839844 40.421875 17.78125 40.449219 17.726562 40.476562 C 17.78125 40.613281 17.875 40.75 17.875 40.882812 C 17.867188 41.289062 17.972656 41.859375 17.753906 42.058594 C 17.386719 42.394531 17.253906 42.628906 17.480469 43.0625 C 17.664062 43.410156 17.730469 43.9375 18.011719 44.089844 C 18.59375 44.40625 19.277344 44.550781 19.933594 44.71875 C 20.078125 44.757812 20.273438 44.613281 20.441406 44.550781 C 20.652344 44.472656 20.863281 44.390625 21.074219 44.3125 C 21.117188 44.511719 21.164062 44.707031 21.199219 44.910156 C 21.261719 45.238281 21.203125 45.734375 21.398438 45.867188 C 22.136719 46.363281 21.785156 46.917969 21.628906 47.488281 C 21.59375 47.625 21.550781 47.867188 21.601562 47.894531 C 21.953125 48.09375 22.09375 48.644531 22.699219 48.449219 C 23.054688 48.332031 23.507812 48.332031 23.871094 48.4375 C 24.390625 48.59375 24.546875 48.316406 24.699219 48.050781 C 24.507812 47.785156 24.355469 47.574219 24.203125 47.363281 C 24.460938 47.289062 24.71875 47.214844 24.976562 47.148438 C 25.03125 47.132812 25.089844 47.140625 25.148438 47.148438 C 25.597656 47.195312 25.96875 46.960938 26.035156 46.585938 C 26.109375 46.179688 25.957031 45.738281 25.914062 45.226562 C 26.074219 44.75 26.480469 44.867188 26.820312 44.933594 C 26.671875 45.273438 26.851562 45.339844 27.136719 45.308594 C 27.441406 45.273438 27.753906 45.265625 28.046875 45.1875 C 28.324219 45.113281 28.597656 44.992188 28.847656 44.847656 C 29.121094 44.6875 29.359375 44.46875 29.621094 44.289062 C 30.1875 43.898438 30.753906 43.554688 30.554688 42.675781 C 30.46875 42.277344 30.433594 41.957031 30.015625 41.769531 C 29.871094 41.703125 29.753906 41.507812 29.683594 41.347656 C 29.238281 40.300781 28.421875 40.199219 27.570312 40.453125 C 27.394531 40.269531 27.203125 40.085938 27.03125 39.882812 C 26.847656 39.667969 26.671875 39.441406 26.523438 39.199219 C 26.453125 39.085938 26.382812 38.875 26.441406 38.800781 C 26.671875 38.503906 26.476562 38.320312 26.328125 38.097656 C 26.164062 37.847656 26.074219 37.542969 25.882812 37.324219 C 25.652344 37.066406 25.351562 36.871094 25.074219 36.65625 C 24.980469 36.585938 24.84375 36.558594 24.765625 36.476562 C 24.5 36.183594 23.605469 36.078125 23.328125 36.355469 C 22.871094 36.8125 22.421875 37.285156 22.011719 37.785156 C 21.914062 37.90625 21.886719 38.21875 21.976562 38.328125 C 22.152344 38.554688 22.429688 38.707031 22.667969 38.980469 Z M 22.667969 38.980469 "/>
<path style=" stroke:none;fill-rule:nonzero;fill:rgb(93.333334%,71.764708%,80.784315%);fill-opacity:1;" d="M 8.511719 59.191406 C 6.953125 59.136719 5.46875 58.992188 4.253906 57.96875 C 4.105469 57.84375 3.976562 57.65625 3.929688 57.476562 C 3.773438 56.875 3.378906 56.273438 3.808594 55.636719 C 3.894531 55.507812 4.015625 55.335938 4.148438 55.3125 C 5.003906 55.136719 5.871094 54.890625 6.742188 55.265625 C 6.769531 55.277344 6.8125 55.25 6.804688 55.253906 C 7.019531 54.632812 7.21875 54.035156 7.433594 53.441406 C 7.574219 53.050781 8.421875 52.636719 9 52.660156 C 9.527344 52.679688 10.160156 53.109375 10.285156 53.558594 C 10.773438 55.308594 10.511719 57 9.730469 58.589844 C 9.578125 58.902344 8.964844 58.996094 8.511719 59.191406 Z M 8.511719 59.191406 "/>
<path style=" stroke:none;fill-rule:nonzero;fill:rgb(90.588236%,68.235296%,74.117649%);fill-opacity:1;" d="M 68.929688 51.734375 C 68.6875 51.960938 68.476562 52.242188 68.199219 52.40625 C 67.863281 52.605469 67.554688 52.449219 67.308594 52.164062 C 67.257812 52.105469 67.132812 52.105469 67 52.035156 C 66.878906 51.636719 66.773438 51.292969 66.730469 50.941406 C 66.636719 50.179688 66.597656 49.410156 66.488281 48.652344 C 66.449219 48.382812 66.242188 48.140625 66.164062 47.871094 C 65.898438 46.949219 65.679688 46.015625 65.394531 45.101562 C 65.296875 44.789062 64.960938 44.535156 64.910156 44.226562 C 64.828125 43.695312 64.542969 43.511719 64.070312 43.421875 C 64.015625 43.097656 63.972656 42.820312 63.914062 42.546875 C 63.882812 42.414062 63.785156 42.28125 63.796875 42.15625 C 63.820312 41.90625 63.898438 41.660156 63.988281 41.394531 C 64.425781 41.195312 64.824219 41.019531 65.230469 40.882812 C 65.503906 41.011719 65.769531 41.09375 66.039062 41.222656 C 66.234375 41.464844 66.421875 41.667969 66.625 41.902344 C 66.707031 42.027344 66.777344 42.121094 66.84375 42.257812 C 66.84375 42.425781 66.84375 42.550781 66.824219 42.683594 C 66.820312 42.722656 66.832031 42.753906 66.886719 42.792969 C 67.171875 43.417969 67.402344 44.039062 67.664062 44.648438 C 67.769531 44.890625 67.628906 45.3125 68.109375 45.3125 C 68.113281 45.359375 68.121094 45.402344 68.125 45.535156 C 68.269531 46.089844 68.414062 46.5625 68.558594 47.035156 C 68.5625 47.085938 68.566406 47.136719 68.539062 47.253906 C 68.5625 47.496094 68.617188 47.667969 68.671875 47.839844 C 68.675781 47.925781 68.683594 48.011719 68.660156 48.167969 C 68.714844 48.660156 68.851562 49.078125 68.878906 49.5 C 68.929688 50.242188 68.914062 50.988281 68.929688 51.734375 Z M 68.929688 51.734375 "/>
<path style=" stroke:none;fill-rule:nonzero;fill:rgb(90.980393%,70.588237%,76.078433%);fill-opacity:1;" d="M 44.527344 23.234375 C 44.167969 23.148438 43.972656 22.96875 43.859375 22.523438 C 43.671875 21.765625 43.28125 21.050781 42.917969 20.351562 C 42.324219 19.199219 41.304688 18.386719 40.480469 17.414062 C 39.785156 16.589844 38.820312 16.160156 37.917969 15.730469 C 37.179688 15.378906 36.386719 15.109375 35.640625 14.734375 C 35.273438 14.550781 34.777344 14.605469 34.339844 14.570312 C 33.597656 14.511719 32.855469 14.464844 32.078125 14.382812 C 32.703125 14.316406 33.386719 14.152344 34.019531 14.265625 C 35.351562 14.496094 36.710938 14.738281 37.957031 15.230469 C 38.929688 15.613281 39.808594 16.304688 40.617188 16.988281 C 42.214844 18.332031 43.34375 20.046875 44.207031 21.929688 C 44.382812 22.316406 44.421875 22.769531 44.527344 23.234375 Z M 44.527344 23.234375 "/>
<path style=" stroke:none;fill-rule:nonzero;fill:rgb(94.117647%,82.745099%,89.019608%);fill-opacity:1;" d="M 63.839844 65.488281 C 63.59375 65.246094 63.34375 65.027344 63.199219 64.75 C 62.988281 64.347656 63.339844 63.925781 63.824219 64.042969 C 64.234375 64.140625 64.316406 64.019531 64.46875 63.667969 C 64.585938 63.402344 64.984375 63.257812 65.253906 63.0625 C 65.296875 63.101562 65.335938 63.140625 65.378906 63.179688 C 65.421875 63.003906 65.453125 62.820312 65.515625 62.648438 C 65.683594 62.191406 65.882812 62.144531 66.292969 62.417969 C 66.558594 62.59375 66.84375 62.746094 67.121094 62.910156 C 67.117188 62.988281 67.109375 63.066406 67.105469 63.144531 C 66.660156 63.328125 66.21875 63.515625 65.734375 63.714844 C 65.859375 64.191406 65.640625 64.449219 65.046875 64.53125 C 64.808594 64.5625 64.609375 64.875 64.390625 65.0625 C 64.222656 65.203125 64.050781 65.347656 63.839844 65.488281 Z M 63.839844 65.488281 "/>
<path style=" stroke:none;fill-rule:nonzero;fill:rgb(93.333334%,71.764708%,80.784315%);fill-opacity:1;" d="M 68.109375 45.265625 C 67.628906 45.3125 67.769531 44.890625 67.664062 44.648438 C 67.402344 44.039062 67.171875 43.417969 66.882812 42.765625 C 66.84375 42.730469 66.84375 42.671875 66.84375 42.671875 C 66.84375 42.550781 66.84375 42.425781 66.875 42.238281 C 67 41.992188 67.09375 41.816406 67.230469 41.640625 C 67.476562 41.523438 67.679688 41.410156 67.917969 41.28125 C 68.007812 41.160156 68.0625 41.054688 68.15625 40.949219 C 68.320312 40.832031 68.449219 40.71875 68.617188 40.589844 C 68.9375 40.503906 69.105469 40.351562 69.042969 40.035156 C 69.269531 39.679688 69.496094 39.324219 69.769531 38.921875 C 70.042969 38.726562 70.277344 38.574219 70.507812 38.425781 C 70.050781 39.390625 69.558594 40.335938 68.71875 41.039062 C 68.300781 41.394531 67.816406 41.675781 67.417969 42.050781 C 67.285156 42.175781 67.25 42.515625 67.304688 42.714844 C 67.546875 43.558594 67.839844 44.386719 68.109375 45.265625 Z M 68.109375 45.265625 "/>
<path style=" stroke:none;fill-rule:nonzero;fill:rgb(93.333334%,71.764708%,80.784315%);fill-opacity:1;" d="M 70.410156 28.519531 C 70.277344 28.476562 70.066406 28.414062 70.027344 28.296875 C 69.753906 27.441406 69.527344 26.570312 69.265625 25.710938 C 69.183594 25.445312 69.019531 25.203125 68.917969 24.941406 C 68.792969 24.617188 68.691406 24.28125 68.582031 23.90625 C 68.792969 24.175781 69.074219 24.472656 69.199219 24.824219 C 69.636719 26.03125 70.015625 27.253906 70.410156 28.519531 Z M 70.410156 28.519531 "/>
<path style=" stroke:none;fill-rule:nonzero;fill:rgb(90.980393%,70.588237%,76.078433%);fill-opacity:1;" d="M 47.367188 23.164062 C 47.015625 23.8125 46.710938 24.539062 45.886719 24.824219 C 45.746094 24.875 45.6875 25.128906 45.566406 25.269531 C 45.464844 25.386719 45.339844 25.53125 45.203125 25.550781 C 45.113281 25.566406 44.921875 25.417969 44.886719 25.304688 C 44.742188 24.867188 44.628906 24.414062 44.53125 23.960938 C 44.492188 23.777344 44.523438 23.582031 44.527344 23.335938 C 44.640625 23.679688 44.746094 24.078125 44.871094 24.46875 C 44.941406 24.6875 45.042969 24.894531 45.132812 25.109375 C 45.285156 24.980469 45.433594 24.851562 45.582031 24.71875 C 46.164062 24.203125 46.746094 23.6875 47.367188 23.164062 Z M 47.367188 23.164062 "/>
<path style=" stroke:none;fill-rule:nonzero;fill:rgb(94.117647%,82.745099%,89.019608%);fill-opacity:1;" d="M 54.242188 67.671875 C 54.195312 67.34375 54.070312 67.03125 54.15625 66.789062 C 54.226562 66.585938 54.523438 66.417969 54.757812 66.332031 C 54.832031 66.304688 55.042969 66.578125 55.15625 66.738281 C 55.214844 66.820312 55.164062 66.980469 55.222656 67.066406 C 55.40625 67.335938 55.511719 67.660156 55.167969 67.789062 C 54.910156 67.886719 54.558594 67.75 54.242188 67.671875 Z M 54.242188 67.671875 "/>
<path style=" stroke:none;fill-rule:nonzero;fill:rgb(90.980393%,70.588237%,76.078433%);fill-opacity:1;" d="M 22.972656 19.058594 C 22.84375 19.347656 22.679688 19.636719 22.507812 19.925781 C 22.480469 19.972656 22.402344 19.988281 22.378906 20.035156 C 21.96875 20.855469 21.578125 21.6875 21.148438 22.5 C 21.054688 22.675781 20.832031 22.789062 20.625 22.9375 C 20.707031 22.597656 20.773438 22.21875 20.96875 21.917969 C 21.601562 20.949219 22.277344 20.011719 22.972656 19.058594 Z M 22.972656 19.058594 "/>
<path style=" stroke:none;fill-rule:nonzero;fill:rgb(94.117647%,82.745099%,89.019608%);fill-opacity:1;" d="M 61.640625 65.84375 C 61.757812 66.449219 61.742188 66.457031 60.90625 66.21875 C 60.882812 66.304688 60.855469 66.386719 60.832031 66.472656 C 60.8125 66.542969 60.800781 66.617188 60.78125 66.695312 C 60.320312 66.449219 60.171875 65.996094 60.371094 65.394531 C 60.523438 65.449219 60.675781 65.503906 60.871094 65.574219 C 60.917969 65.417969 60.960938 65.265625 61.007812 65.113281 C 61.054688 65.082031 61.101562 65.054688 61.148438 65.027344 C 61.308594 65.285156 61.464844 65.546875 61.640625 65.84375 Z M 61.640625 65.84375 "/>
<path style=" stroke:none;fill-rule:nonzero;fill:rgb(94.117647%,82.745099%,89.019608%);fill-opacity:1;" d="M 62.820312 65.59375 C 62.5625 65.730469 62.339844 65.894531 62.097656 66.070312 C 61.867188 65.878906 61.742188 64.976562 61.996094 64.726562 C 62.070312 64.652344 62.308594 64.621094 62.378906 64.679688 C 62.742188 64.984375 63.078125 65.324219 63.421875 65.648438 C 63.375 65.710938 63.328125 65.777344 63.277344 65.839844 C 63.136719 65.765625 62.996094 65.691406 62.820312 65.59375 Z M 62.820312 65.59375 "/>
<path style=" stroke:none;fill-rule:nonzero;fill:rgb(94.117647%,82.745099%,89.019608%);fill-opacity:1;" d="M 57.9375 67.105469 C 57.886719 67.210938 57.832031 67.320312 57.777344 67.425781 C 57.6875 67.371094 57.535156 67.332031 57.511719 67.257812 C 57.417969 66.9375 57.363281 66.605469 57.296875 66.292969 C 57.710938 66.253906 57.992188 66.226562 58.34375 66.191406 C 58.378906 66.28125 58.476562 66.464844 58.515625 66.65625 C 58.550781 66.84375 58.527344 67.042969 58.53125 67.238281 C 58.359375 67.195312 58.191406 67.15625 57.972656 67.09375 C 57.917969 67.070312 57.910156 67.0625 57.898438 67.058594 C 57.914062 67.074219 57.925781 67.089844 57.9375 67.105469 Z M 57.9375 67.105469 "/>
<path style=" stroke:none;fill-rule:nonzero;fill:rgb(94.117647%,82.745099%,89.019608%);fill-opacity:1;" d="M 55.859375 67.015625 C 55.890625 66.816406 55.910156 66.664062 55.960938 66.523438 C 56.117188 66.117188 56.339844 66.078125 56.609375 66.40625 C 56.730469 66.554688 56.863281 66.707031 56.929688 66.878906 C 57 67.058594 57.003906 67.261719 57.035156 67.457031 C 56.882812 67.425781 56.726562 67.351562 56.585938 67.375 C 56.390625 67.410156 56.207031 67.515625 55.933594 67.625 C 55.910156 67.464844 55.882812 67.261719 55.859375 67.015625 Z M 55.859375 67.015625 "/>
<path style=" stroke:none;fill-rule:nonzero;fill:rgb(93.333334%,71.764708%,80.784315%);fill-opacity:1;" d="M 68.574219 23.816406 C 68.472656 23.820312 68.328125 23.816406 68.261719 23.742188 C 67.585938 22.972656 66.914062 22.191406 66.253906 21.40625 C 66.1875 21.328125 66.183594 21.195312 66.148438 21.042969 C 67.222656 21.695312 67.953125 22.6875 68.574219 23.816406 Z M 68.574219 23.816406 "/>
<path style=" stroke:none;fill-rule:nonzero;fill:rgb(93.333334%,71.764708%,80.784315%);fill-opacity:1;" d="M 71.042969 33.695312 C 70.898438 33.125 70.753906 32.527344 70.675781 31.921875 C 70.597656 31.292969 70.585938 30.660156 70.550781 29.976562 C 70.640625 30.039062 70.792969 30.144531 70.804688 30.261719 C 70.90625 31.394531 70.984375 32.527344 71.042969 33.695312 Z M 71.042969 33.695312 "/>
<path style=" stroke:none;fill-rule:nonzero;fill:rgb(93.333334%,71.764708%,80.784315%);fill-opacity:1;" d="M 66.769531 60.332031 C 66.835938 60.09375 66.941406 59.847656 67.042969 59.597656 C 67.207031 59.199219 67.375 58.804688 67.53125 58.40625 C 67.578125 58.285156 67.566406 58.136719 67.632812 58.027344 C 67.90625 57.574219 68.199219 57.132812 68.527344 56.675781 C 68.183594 57.980469 67.675781 59.238281 66.769531 60.332031 Z M 66.769531 60.332031 "/>
<path style=" stroke:none;fill-rule:nonzero;fill:rgb(90.980393%,70.588237%,76.078433%);fill-opacity:1;" d="M 27.542969 15.90625 C 27.234375 16.058594 26.949219 16.171875 26.660156 16.28125 C 26.328125 16.402344 25.992188 16.515625 25.617188 16.632812 C 26.136719 16.277344 26.691406 15.898438 27.273438 15.566406 C 27.699219 15.324219 28.15625 15.144531 28.640625 14.933594 C 28.457031 15.421875 28.042969 15.683594 27.542969 15.90625 Z M 27.542969 15.90625 "/>
<path style=" stroke:none;fill-rule:nonzero;fill:rgb(94.117647%,82.745099%,89.019608%);fill-opacity:1;" d="M 59.464844 65.71875 C 59.734375 66.070312 59.96875 66.394531 60.207031 66.714844 C 60.152344 66.769531 60.097656 66.820312 60.042969 66.871094 C 59.878906 66.8125 59.71875 66.75 59.515625 66.671875 C 59.414062 66.804688 59.304688 66.941406 59.195312 67.085938 C 58.769531 66.617188 58.914062 65.8125 59.464844 65.71875 Z M 59.464844 65.71875 "/>
<path style=" stroke:none;fill-rule:nonzero;fill:rgb(93.333334%,71.764708%,80.784315%);fill-opacity:1;" d="M 68.621094 56.542969 C 68.585938 56.402344 68.542969 56.226562 68.605469 56.105469 C 69.105469 55.125 69.003906 54.066406 69.046875 53.027344 C 69.050781 52.910156 69.128906 52.792969 69.214844 52.664062 C 69.300781 52.851562 69.398438 53.054688 69.371094 53.242188 C 69.238281 54.101562 69.082031 54.953125 68.914062 55.804688 C 68.863281 56.054688 68.75 56.289062 68.621094 56.542969 Z M 68.621094 56.542969 "/>
<path style=" stroke:none;fill-rule:nonzero;fill:rgb(90.980393%,70.588237%,76.078433%);fill-opacity:1;" d="M 70.519531 38.386719 C 70.277344 38.574219 70.042969 38.726562 69.773438 38.882812 C 69.445312 38.296875 69.367188 37.792969 70.222656 37.636719 C 70.3125 37.617188 70.382812 37.488281 70.503906 37.441406 C 70.546875 37.53125 70.550781 37.585938 70.554688 37.636719 C 70.550781 37.6875 70.550781 37.734375 70.519531 37.839844 C 70.503906 37.996094 70.519531 38.09375 70.535156 38.195312 C 70.53125 38.246094 70.53125 38.296875 70.519531 38.386719 Z M 70.519531 38.386719 "/>
<path style=" stroke:none;fill-rule:nonzero;fill:rgb(93.333334%,71.764708%,80.784315%);fill-opacity:1;" d="M 68.960938 51.746094 C 68.914062 50.988281 68.929688 50.242188 68.878906 49.5 C 68.851562 49.078125 68.714844 48.660156 68.65625 48.210938 C 68.769531 48.375 68.90625 48.566406 68.933594 48.765625 C 69.0625 49.757812 69.15625 50.75 69.261719 51.796875 C 69.167969 51.820312 69.078125 51.792969 68.960938 51.746094 Z M 68.960938 51.746094 "/>
<path style=" stroke:none;fill-rule:nonzero;fill:rgb(90.980393%,70.588237%,76.078433%);fill-opacity:1;" d="M 31.65625 14.324219 C 31.421875 14.445312 31.171875 14.550781 30.90625 14.609375 C 30.269531 14.746094 29.625 14.863281 28.953125 14.957031 C 29.34375 14.738281 29.746094 14.476562 30.1875 14.371094 C 30.648438 14.265625 31.148438 14.3125 31.65625 14.324219 Z M 31.65625 14.324219 "/>
<path style=" stroke:none;fill-rule:nonzero;fill:rgb(90.980393%,70.588237%,76.078433%);fill-opacity:1;" d="M 25.515625 16.75 C 25.542969 16.835938 25.566406 16.972656 25.515625 17.011719 C 24.992188 17.390625 24.457031 17.753906 23.882812 18.125 C 24.230469 17.488281 24.777344 17.035156 25.515625 16.75 Z M 25.515625 16.75 "/>
<path style=" stroke:none;fill-rule:nonzero;fill:rgb(93.333334%,71.764708%,80.784315%);fill-opacity:1;" d="M 70.945312 35.90625 C 70.929688 35.328125 70.953125 34.738281 70.996094 34.101562 C 71.089844 34.367188 71.21875 34.675781 71.214844 34.980469 C 71.210938 35.285156 71.070312 35.585938 70.945312 35.90625 Z M 70.945312 35.90625 "/>
<path style=" stroke:none;fill-rule:nonzero;fill:rgb(93.333334%,71.764708%,80.784315%);fill-opacity:1;" d="M 59.757812 18.5625 C 59.398438 18.660156 59.011719 18.75 58.621094 18.773438 C 58.414062 18.789062 58.199219 18.691406 57.964844 18.613281 C 58.535156 18.566406 59.128906 18.546875 59.757812 18.5625 Z M 59.757812 18.5625 "/>
<path style=" stroke:none;fill-rule:nonzero;fill:rgb(93.333334%,71.764708%,80.784315%);fill-opacity:1;" d="M 63 19.367188 C 62.425781 19.546875 61.992188 19.199219 61.527344 18.875 C 62.003906 19.003906 62.492188 19.167969 63 19.367188 Z M 63 19.367188 "/>
<path style=" stroke:none;fill-rule:nonzero;fill:rgb(93.333334%,71.764708%,80.784315%);fill-opacity:1;" d="M 64.761719 20.144531 C 64.359375 19.976562 63.949219 19.769531 63.511719 19.53125 C 63.910156 19.699219 64.332031 19.902344 64.761719 20.144531 Z M 64.761719 20.144531 "/>
<path style=" stroke:none;fill-rule:nonzero;fill:rgb(93.333334%,71.764708%,80.784315%);fill-opacity:1;" d="M 68.5625 46.988281 C 68.414062 46.5625 68.269531 46.089844 68.128906 45.570312 C 68.277344 45.992188 68.421875 46.46875 68.5625 46.988281 Z M 68.5625 46.988281 "/>
<path style=" stroke:none;fill-rule:nonzero;fill:rgb(90.980393%,70.588237%,76.078433%);fill-opacity:1;" d="M 23.777344 18.238281 C 23.695312 18.5625 23.6875 18.976562 23.164062 19.039062 C 23.246094 18.710938 23.207031 18.261719 23.777344 18.238281 Z M 23.777344 18.238281 "/>
<path style=" stroke:none;fill-rule:nonzero;fill:rgb(93.333334%,71.764708%,80.784315%);fill-opacity:1;" d="M 70.59375 37.625 C 70.550781 37.585938 70.546875 37.53125 70.542969 37.4375 C 70.640625 37.03125 70.734375 36.667969 70.859375 36.277344 C 70.804688 36.703125 70.71875 37.15625 70.59375 37.625 Z M 70.59375 37.625 "/>
<path style=" stroke:none;fill-rule:nonzero;fill:rgb(93.333334%,71.764708%,80.784315%);fill-opacity:1;" d="M 61.148438 18.78125 C 60.796875 18.769531 60.417969 18.726562 60.027344 18.644531 C 60.382812 18.652344 60.753906 18.699219 61.148438 18.78125 Z M 61.148438 18.78125 "/>
<path style=" stroke:none;fill-rule:nonzero;fill:rgb(89.803922%,69.411767%,74.509805%);fill-opacity:1;" d="M 57.523438 65.59375 C 57.648438 64.960938 58.113281 65.363281 58.484375 65.351562 C 58.199219 65.453125 57.882812 65.523438 57.523438 65.59375 Z M 57.523438 65.59375 "/>
<path style=" stroke:none;fill-rule:nonzero;fill:rgb(93.333334%,71.764708%,80.784315%);fill-opacity:1;" d="M 66.039062 20.945312 C 65.8125 20.863281 65.582031 20.738281 65.34375 20.574219 C 65.570312 20.65625 65.804688 20.78125 66.039062 20.945312 Z M 66.039062 20.945312 "/>
<path style=" stroke:none;fill-rule:nonzero;fill:rgb(93.333334%,71.764708%,80.784315%);fill-opacity:1;" d="M 70.582031 29.679688 C 70.511719 29.476562 70.46875 29.238281 70.429688 28.953125 C 70.492188 29.152344 70.550781 29.398438 70.582031 29.679688 Z M 70.582031 29.679688 "/>
<path style=" stroke:none;fill-rule:nonzero;fill:rgb(93.333334%,71.764708%,80.784315%);fill-opacity:1;" d="M 68.675781 47.792969 C 68.617188 47.667969 68.5625 47.496094 68.535156 47.292969 C 68.605469 47.425781 68.644531 47.589844 68.675781 47.792969 Z M 68.675781 47.792969 "/>
<path style=" stroke:none;fill-rule:nonzero;fill:rgb(90.980393%,70.588237%,76.078433%);fill-opacity:1;" d="M 29.300781 65.847656 C 29.324219 65.746094 29.386719 65.648438 29.449219 65.546875 C 29.5 65.625 29.550781 65.703125 29.597656 65.824219 C 29.511719 65.859375 29.425781 65.855469 29.300781 65.847656 Z M 29.300781 65.847656 "/>
<path style=" stroke:none;fill-rule:nonzero;fill:rgb(93.333334%,71.764708%,80.784315%);fill-opacity:1;" d="M 70.5625 38.175781 C 70.519531 38.09375 70.503906 37.996094 70.519531 37.875 C 70.5625 37.953125 70.578125 38.054688 70.5625 38.175781 Z M 70.5625 38.175781 "/>
<path style=" stroke:none;fill-rule:nonzero;fill:rgb(93.333334%,71.764708%,80.784315%);fill-opacity:1;" d="M 65.332031 20.496094 C 65.265625 20.484375 65.191406 20.4375 65.113281 20.355469 C 65.179688 20.367188 65.253906 20.414062 65.332031 20.496094 Z M 65.332031 20.496094 "/>
<path style=" stroke:none;fill-rule:nonzero;fill:rgb(96.078432%,78.039217%,82.352942%);fill-opacity:1;" d="M 65.222656 40.839844 C 64.824219 41.019531 64.425781 41.195312 63.941406 41.390625 C 63.742188 41.417969 63.617188 41.394531 63.511719 41.429688 C 62.199219 41.867188 60.890625 41.953125 59.539062 41.53125 C 58.394531 41.171875 57.335938 40.695312 56.441406 39.878906 C 55.363281 38.886719 54.617188 37.644531 53.855469 36.433594 C 53.546875 35.9375 53.21875 35.6875 52.675781 35.589844 C 51.914062 35.460938 51.558594 35.710938 51.589844 36.46875 C 51.605469 36.859375 51.648438 37.289062 51.828125 37.621094 C 52.261719 38.417969 52.761719 39.183594 53.28125 39.925781 C 53.625 40.421875 53.988281 40.9375 54.457031 41.296875 C 55.304688 41.941406 56.199219 42.535156 57.136719 43.042969 C 57.957031 43.484375 58.824219 43.875 59.820312 43.828125 C 60.597656 43.789062 61.382812 43.863281 62.15625 43.804688 C 62.800781 43.757812 63.433594 43.585938 64.070312 43.46875 C 64.542969 43.511719 64.828125 43.695312 64.910156 44.226562 C 64.960938 44.535156 65.296875 44.789062 65.394531 45.101562 C 65.679688 46.015625 65.898438 46.949219 66.164062 47.871094 C 66.242188 48.140625 66.449219 48.382812 66.488281 48.652344 C 66.597656 49.410156 66.636719 50.179688 66.730469 50.941406 C 66.773438 51.292969 66.878906 51.636719 66.957031 52.03125 C 66.882812 53.261719 66.882812 54.453125 66.714844 55.625 C 66.519531 57.003906 65.84375 58.1875 64.871094 59.203125 C 63.871094 60.25 62.65625 61 61.425781 61.734375 C 61.34375 61.785156 61.21875 61.761719 61.085938 61.742188 C 61.425781 61.066406 61.84375 60.4375 62.144531 59.761719 C 62.472656 59.027344 62.878906 58.257812 62.925781 57.480469 C 63.03125 55.757812 63.328125 53.992188 62.585938 52.3125 C 62.1875 51.417969 61.90625 50.457031 61.410156 49.621094 C 60.5 48.078125 59.425781 46.640625 57.871094 45.648438 C 56.730469 44.925781 55.605469 44.175781 54.433594 43.507812 C 52.980469 42.679688 51.378906 42.246094 49.730469 41.980469 C 48.730469 41.820312 47.738281 41.597656 46.738281 41.441406 C 46.21875 41.363281 45.6875 41.386719 45.164062 41.335938 C 43.980469 41.222656 42.800781 41.03125 41.617188 40.992188 C 40.761719 40.964844 39.898438 41.09375 39.046875 41.222656 C 37.878906 41.402344 36.707031 41.609375 35.558594 41.886719 C 34.722656 42.085938 33.917969 42.429688 33.097656 42.691406 C 32.472656 42.890625 31.839844 43.054688 31.164062 43.246094 C 31.378906 42.160156 30.917969 41.238281 30.15625 40.59375 C 29.667969 40.183594 28.882812 40.035156 28.207031 39.945312 C 27.390625 39.835938 27.40625 39.910156 27.28125 39.121094 C 27.0625 37.785156 26.53125 36.558594 25.242188 35.980469 C 24.664062 35.722656 23.78125 35.710938 23.203125 35.960938 C 22.113281 36.4375 21.355469 37.320312 21.253906 38.617188 C 21.207031 39.207031 20.871094 39.394531 20.25 39.355469 C 19.964844 39.339844 19.675781 39.410156 19.347656 39.441406 C 19.425781 37.507812 19.472656 35.566406 19.683594 33.644531 C 19.832031 32.300781 20.109375 30.953125 20.503906 29.65625 C 21.03125 27.914062 21.660156 26.191406 22.382812 24.519531 C 22.878906 23.375 23.511719 22.257812 24.257812 21.257812 C 25.179688 20.015625 26.257812 18.882812 27.683594 18.160156 C 28.191406 17.898438 28.699219 17.644531 29.234375 17.351562 C 30.578125 16.886719 31.933594 16.675781 33.320312 16.753906 C 34.832031 16.84375 36.335938 17.078125 37.65625 17.847656 C 38.992188 18.628906 40.082031 19.730469 40.792969 21.101562 C 41.417969 22.304688 41.960938 23.574219 42.34375 24.871094 C 42.734375 26.183594 42.882812 27.566406 43.105469 28.996094 C 43.019531 29.246094 42.960938 29.421875 42.90625 29.59375 C 42.90625 29.644531 42.902344 29.695312 42.859375 29.792969 C 42.769531 30.027344 42.71875 30.210938 42.667969 30.394531 C 42.59375 30.558594 42.519531 30.71875 42.414062 30.949219 C 42.363281 31.117188 42.34375 31.21875 42.328125 31.316406 C 42.328125 31.367188 42.324219 31.417969 42.296875 31.535156 C 42.132812 32.117188 42 32.636719 41.867188 33.152344 C 41.867188 33.203125 41.863281 33.253906 41.832031 33.375 C 41.714844 33.910156 41.601562 34.375 41.554688 34.839844 C 41.480469 35.558594 41.414062 36.28125 41.417969 37.003906 C 41.417969 37.464844 41.664062 37.894531 42.15625 37.972656 C 42.449219 38.015625 42.875 37.933594 43.066406 37.738281 C 43.359375 37.441406 43.59375 37.019531 43.6875 36.617188 C 43.945312 35.5 44.148438 34.367188 44.3125 33.230469 C 44.527344 31.78125 45.03125 30.421875 45.65625 29.117188 C 46.023438 28.355469 46.574219 27.679688 47.058594 26.980469 C 48.007812 25.605469 49.175781 24.433594 50.589844 23.542969 C 51.648438 22.871094 52.765625 22.289062 53.871094 21.699219 C 54.195312 21.523438 54.578125 21.453125 54.933594 21.335938 C 55.023438 21.308594 55.117188 21.277344 55.285156 21.234375 C 55.445312 21.183594 55.535156 21.144531 55.625 21.105469 C 56.269531 21.039062 56.917969 20.910156 57.5625 20.921875 C 58.398438 20.9375 59.261719 20.957031 60.054688 21.175781 C 60.890625 21.40625 61.703125 21.621094 62.625 21.566406 C 62.890625 21.757812 63.078125 21.996094 63.324219 22.128906 C 63.910156 22.4375 64.589844 22.578125 64.992188 23.199219 C 65.238281 23.578125 65.632812 23.863281 65.886719 24.234375 C 66.433594 25.027344 66.976562 25.828125 67.429688 26.675781 C 67.699219 27.183594 67.824219 27.777344 67.980469 28.34375 C 68.289062 29.488281 68.707031 30.621094 68.835938 31.785156 C 69 33.226562 68.914062 34.695312 68.898438 36.230469 C 68.546875 37.132812 68.472656 38.03125 67.796875 38.742188 C 67.023438 39.5625 66.234375 40.324219 65.222656 40.839844 Z M 65.222656 40.839844 "/>
<path style=" stroke:none;fill-rule:nonzero;fill:rgb(99.607843%,99.607843%,99.607843%);fill-opacity:1;" d="M 54.703125 63.324219 C 53.789062 63.554688 52.871094 63.792969 51.953125 64.015625 C 50.355469 64.394531 48.734375 64.226562 47.117188 64.265625 C 45.257812 64.308594 43.386719 64.195312 41.535156 64.605469 C 40.988281 64.726562 40.371094 64.507812 39.78125 64.460938 C 39.140625 64.410156 38.488281 64.3125 37.851562 64.359375 C 36.453125 64.460938 35.136719 64.007812 33.78125 63.84375 C 32.816406 63.726562 31.839844 63.660156 30.882812 63.503906 C 30.421875 63.429688 29.988281 63.195312 29.519531 62.960938 C 29.597656 62.828125 29.699219 62.734375 29.808594 62.722656 C 30.847656 62.640625 31.894531 62.589844 32.929688 62.484375 C 33.097656 62.46875 33.285156 62.25 33.378906 62.082031 C 33.535156 61.804688 33.6875 61.5 33.730469 61.1875 C 33.78125 60.796875 33.796875 60.367188 33.683594 59.996094 C 33.582031 59.660156 33.285156 59.382812 33.105469 59.054688 C 33.4375 58.796875 33.824219 58.625 34.019531 58.324219 C 34.792969 57.136719 34.988281 55.84375 34.570312 54.472656 C 34.234375 53.371094 33.382812 52.203125 31.804688 52.5625 C 31.058594 52.734375 30.363281 53.078125 30.019531 53.765625 C 29.355469 55.09375 29.332031 56.507812 29.6875 57.933594 C 29.242188 58.300781 28.753906 58.277344 28.257812 58.277344 C 27.074219 58.28125 26.429688 58.839844 26.230469 59.980469 C 26.175781 60.300781 26.078125 60.617188 26 60.933594 C 25.429688 60.339844 24.75 59.816406 24.316406 59.140625 C 23.566406 57.976562 23.558594 56.679688 23.78125 55.300781 C 24.105469 53.328125 24.789062 51.519531 25.878906 49.882812 C 26.515625 48.921875 27.347656 48.097656 28.386719 47.492188 C 29.003906 47.132812 29.507812 46.617188 30.21875 46.355469 C 31.648438 45.835938 33.027344 45.167969 34.460938 44.648438 C 36.625 43.859375 38.878906 43.453125 41.175781 43.269531 C 41.320312 43.257812 41.46875 43.332031 41.621094 43.347656 C 42.21875 43.417969 42.816406 43.503906 43.417969 43.542969 C 44.464844 43.613281 45.519531 43.605469 46.5625 43.722656 C 47.738281 43.851562 48.90625 44.078125 50.070312 44.28125 C 50.371094 44.332031 50.652344 44.460938 50.945312 44.546875 C 53.488281 45.285156 55.546875 46.835938 57.582031 48.433594 C 58.570312 49.210938 59.199219 50.242188 59.738281 51.320312 C 60.226562 52.292969 60.742188 53.300781 60.953125 54.351562 C 61.1875 55.515625 61.152344 56.726562 60.601562 57.890625 C 60.226562 58.679688 59.972656 59.511719 59.253906 60.085938 C 59.097656 59.878906 58.964844 59.714844 58.886719 59.523438 C 58.625 58.898438 58.117188 58.5 57.484375 58.507812 C 56.898438 58.515625 56.304688 58.589844 56.242188 57.757812 C 56.238281 57.734375 56.140625 57.71875 56.085938 57.652344 C 56.109375 56.976562 56.246094 56.332031 56.136719 55.730469 C 55.945312 54.648438 55.574219 53.617188 54.390625 53.160156 C 53.59375 52.855469 52.851562 52.730469 52.078125 53.324219 C 51.296875 53.925781 51.070312 54.753906 50.917969 55.613281 C 50.699219 56.878906 51.070312 58.019531 51.824219 59.089844 C 51.769531 59.300781 51.710938 59.457031 51.675781 59.621094 C 51.5625 60.191406 51.375 60.761719 51.371094 61.332031 C 51.371094 61.988281 51.820312 62.910156 52.660156 62.964844 C 53.175781 62.996094 53.691406 63.03125 54.199219 63.097656 C 54.375 63.121094 54.535156 63.246094 54.703125 63.324219 M 43.777344 56.597656 C 43.453125 56.578125 43.125 56.578125 42.804688 56.53125 C 41.476562 56.339844 40.800781 56.90625 40.820312 58.183594 C 40.828125 58.609375 40.988281 58.890625 41.390625 58.996094 C 41.847656 59.113281 42.320312 59.191406 42.785156 59.277344 C 43.464844 59.402344 44.324219 59.007812 44.5 58.5 C 44.8125 57.585938 44.660156 57.140625 43.777344 56.597656 Z M 43.777344 56.597656 "/>
<path style=" stroke:none;fill-rule:nonzero;fill:rgb(95.686275%,78.039217%,81.960785%);fill-opacity:1;" d="M 19.65625 45.484375 C 19.691406 45.433594 19.730469 45.429688 19.769531 45.429688 C 20.695312 45.394531 20.675781 45.394531 20.707031 46.316406 C 20.742188 47.261719 20.929688 48.195312 21.753906 48.785156 C 22.148438 49.066406 22.683594 49.152344 23.203125 49.332031 C 23.214844 49.5 23.199219 49.671875 23.136719 49.824219 C 22.785156 50.691406 22.355469 51.535156 22.085938 52.425781 C 21.78125 53.433594 21.519531 54.46875 21.425781 55.511719 C 21.332031 56.53125 21.285156 57.628906 21.566406 58.59375 C 21.859375 59.597656 22.566406 60.480469 23.113281 61.449219 C 22.820312 61.347656 22.457031 61.269531 22.203125 61.0625 C 21.078125 60.148438 19.988281 59.152344 19.347656 57.855469 C 18.816406 56.769531 18.257812 55.644531 18.269531 54.367188 C 18.28125 53.195312 18.207031 52.015625 18.292969 50.847656 C 18.359375 49.976562 18.578125 49.113281 18.800781 48.265625 C 19.042969 47.34375 19.367188 46.441406 19.65625 45.484375 Z M 19.65625 45.484375 "/>
<path style=" stroke:none;fill-rule:nonzero;fill:rgb(98.431373%,94.901961%,87.843138%);fill-opacity:1;" d="M 26.011719 60.96875 C 26.078125 60.617188 26.175781 60.300781 26.230469 59.980469 C 26.429688 58.839844 27.074219 58.28125 28.257812 58.277344 C 28.753906 58.277344 29.242188 58.300781 29.714844 57.960938 C 29.898438 58.199219 29.980469 58.4375 30.128906 58.625 C 30.699219 59.332031 32.058594 59.644531 33.074219 59.078125 C 33.285156 59.382812 33.582031 59.660156 33.683594 59.996094 C 33.796875 60.367188 33.78125 60.796875 33.730469 61.1875 C 33.6875 61.5 33.535156 61.804688 33.378906 62.082031 C 33.285156 62.25 33.097656 62.46875 32.929688 62.484375 C 31.894531 62.589844 30.847656 62.640625 29.808594 62.722656 C 29.699219 62.734375 29.597656 62.828125 29.492188 62.925781 C 28.535156 62.792969 27.691406 62.363281 26.921875 61.792969 C 26.601562 61.554688 26.320312 61.269531 26.011719 60.96875 Z M 26.011719 60.96875 "/>
<path style=" stroke:none;fill-rule:nonzero;fill:rgb(98.431373%,95.294118%,88.627452%);fill-opacity:1;" d="M 56.085938 57.699219 C 56.140625 57.71875 56.238281 57.734375 56.242188 57.757812 C 56.304688 58.589844 56.898438 58.515625 57.484375 58.507812 C 58.117188 58.5 58.625 58.898438 58.886719 59.523438 C 58.964844 59.714844 59.097656 59.878906 59.214844 60.101562 C 59.023438 61.226562 58.28125 61.816406 57.335938 62.242188 C 56.664062 62.539062 56.015625 62.886719 55.351562 63.191406 C 55.179688 63.269531 54.980469 63.28125 54.75 63.324219 C 54.535156 63.246094 54.375 63.121094 54.199219 63.097656 C 53.691406 63.03125 53.175781 62.996094 52.660156 62.964844 C 51.820312 62.910156 51.371094 61.988281 51.371094 61.332031 C 51.375 60.761719 51.5625 60.191406 51.675781 59.621094 C 51.710938 59.457031 51.769531 59.300781 51.859375 59.113281 C 52.617188 59.570312 53.367188 59.910156 54.273438 59.738281 C 55.410156 59.519531 55.859375 58.707031 56.085938 57.699219 Z M 56.085938 57.699219 "/>
<path style=" stroke:none;fill-rule:nonzero;fill:rgb(98.431373%,95.294118%,88.627452%);fill-opacity:1;" d="M 27.101562 45.96875 C 27.148438 45.5625 27.347656 45.4375 27.730469 45.734375 C 27.550781 45.835938 27.347656 45.910156 27.101562 45.96875 Z M 27.101562 45.96875 "/>
<path style=" stroke:none;fill-rule:nonzero;fill:rgb(98.431373%,95.294118%,88.627452%);fill-opacity:1;" d="M 28.714844 45.640625 C 28.738281 45.574219 28.800781 45.507812 28.902344 45.441406 C 28.878906 45.507812 28.8125 45.574219 28.714844 45.640625 Z M 28.714844 45.640625 "/>
<path style=" stroke:none;fill-rule:nonzero;fill:rgb(90.980393%,69.803923%,75.294119%);fill-opacity:1;" d="M 54.925781 21.292969 C 54.578125 21.453125 54.195312 21.523438 53.871094 21.699219 C 52.765625 22.289062 51.648438 22.871094 50.589844 23.542969 C 49.175781 24.433594 48.007812 25.605469 47.058594 26.980469 C 46.574219 27.679688 46.023438 28.355469 45.65625 29.117188 C 45.03125 30.421875 44.527344 31.78125 44.3125 33.230469 C 44.148438 34.367188 43.945312 35.5 43.6875 36.617188 C 43.59375 37.019531 43.359375 37.441406 43.066406 37.738281 C 42.875 37.933594 42.449219 38.015625 42.15625 37.972656 C 41.664062 37.894531 41.417969 37.464844 41.417969 37.003906 C 41.414062 36.28125 41.480469 35.558594 41.554688 34.839844 C 41.601562 34.375 41.714844 33.910156 41.832031 33.414062 C 41.972656 33.574219 42.097656 33.757812 42.179688 33.960938 C 42.207031 34.03125 42.097656 34.144531 42.113281 34.230469 C 42.160156 34.507812 42.238281 34.777344 42.300781 35.050781 C 42.429688 34.832031 42.554688 34.613281 42.675781 34.390625 C 42.703125 34.339844 42.695312 34.25 42.730469 34.230469 C 43.375 33.894531 43.261719 33.359375 43.148438 32.800781 C 43.117188 32.648438 43.179688 32.457031 43.253906 32.308594 C 43.472656 31.875 43.507812 31.4375 43.511719 30.949219 C 43.515625 30.53125 43.746094 30.101562 43.925781 29.699219 C 44.121094 29.261719 44.355469 28.839844 44.601562 28.425781 C 44.972656 27.808594 45.367188 27.203125 45.757812 26.59375 C 45.929688 26.324219 46.105469 26.058594 46.28125 25.789062 C 46.332031 25.707031 46.363281 25.5625 46.425781 25.550781 C 47.070312 25.449219 46.988281 24.875 47.160156 24.46875 C 47.21875 24.328125 47.3125 24.167969 47.433594 24.105469 C 48.03125 23.800781 48.660156 23.554688 49.25 23.234375 C 50.203125 22.710938 51.128906 22.140625 52.078125 21.613281 C 52.269531 21.507812 52.519531 21.511719 52.734375 21.449219 C 53.058594 21.351562 53.378906 21.246094 53.695312 21.132812 C 54.125 20.976562 54.550781 20.792969 54.925781 21.292969 Z M 54.925781 21.292969 "/>
<path style=" stroke:none;fill-rule:nonzero;fill:rgb(89.803922%,69.411767%,74.509805%);fill-opacity:1;" d="M 57.742188 19.957031 C 57.515625 19.871094 57.332031 19.789062 57.152344 19.707031 C 57.164062 19.640625 57.175781 19.574219 57.1875 19.507812 C 58.152344 19.570312 59.125 19.179688 60.085938 19.667969 C 59.355469 20.089844 58.589844 20.171875 57.742188 19.957031 Z M 57.742188 19.957031 "/>
<path style=" stroke:none;fill-rule:nonzero;fill:rgb(90.980393%,69.803923%,75.294119%);fill-opacity:1;" d="M 41.90625 33.144531 C 42 32.636719 42.132812 32.117188 42.296875 31.574219 C 42.652344 32.046875 42.488281 32.753906 41.90625 33.144531 Z M 41.90625 33.144531 "/>
<path style=" stroke:none;fill-rule:nonzero;fill:rgb(90.980393%,69.803923%,75.294119%);fill-opacity:1;" d="M 42.949219 29.59375 C 42.960938 29.421875 43.019531 29.246094 43.105469 29.046875 C 43.207031 29.15625 43.28125 29.289062 43.351562 29.421875 C 43.234375 29.480469 43.113281 29.535156 42.949219 29.59375 Z M 42.949219 29.59375 "/>
<path style=" stroke:none;fill-rule:nonzero;fill:rgb(90.980393%,69.803923%,75.294119%);fill-opacity:1;" d="M 42.710938 30.386719 C 42.71875 30.210938 42.769531 30.027344 42.859375 29.832031 C 42.855469 30.007812 42.804688 30.195312 42.710938 30.386719 Z M 42.710938 30.386719 "/>
<path style=" stroke:none;fill-rule:nonzero;fill:rgb(90.980393%,69.803923%,75.294119%);fill-opacity:1;" d="M 55.621094 21.070312 C 55.535156 21.144531 55.445312 21.183594 55.316406 21.21875 C 55.367188 20.902344 55.417969 20.875 55.621094 21.070312 Z M 55.621094 21.070312 "/>
<path style=" stroke:none;fill-rule:nonzero;fill:rgb(90.980393%,69.803923%,75.294119%);fill-opacity:1;" d="M 42.363281 31.308594 C 42.34375 31.21875 42.363281 31.117188 42.414062 30.996094 C 42.429688 31.082031 42.414062 31.191406 42.363281 31.308594 Z M 42.363281 31.308594 "/>
<path style=" stroke:none;fill-rule:nonzero;fill:rgb(90.980393%,70.588237%,76.078433%);fill-opacity:1;" d="M 65.230469 40.882812 C 66.234375 40.324219 67.023438 39.5625 67.796875 38.742188 C 68.472656 38.03125 68.546875 37.132812 68.890625 36.277344 C 69.417969 36.664062 69.507812 37.457031 69.050781 37.839844 C 68.484375 38.316406 68.617188 39.027344 68.410156 39.617188 C 68.335938 39.832031 68.484375 40.269531 69 40.039062 C 69.105469 40.351562 68.9375 40.503906 68.589844 40.5625 C 68.148438 40.449219 67.875 40.445312 68.117188 40.953125 C 68.0625 41.054688 68.007812 41.160156 67.917969 41.238281 C 67.621094 40.601562 67.363281 40.585938 66.902344 41.007812 C 66.503906 41.085938 66.269531 41.132812 66.035156 41.179688 C 65.769531 41.09375 65.503906 41.011719 65.230469 40.882812 Z M 65.230469 40.882812 "/>
<path style=" stroke:none;fill-rule:nonzero;fill:rgb(98.431373%,98.431373%,92.54902%);fill-opacity:1;" d="M 26.828125 44.851562 C 26.480469 44.867188 26.074219 44.75 25.882812 45.269531 C 25.847656 45.308594 25.789062 45.308594 25.75 45.316406 C 25.582031 45.507812 25.453125 45.695312 25.308594 45.921875 C 24.730469 46.554688 24.007812 46.710938 23.222656 46.6875 C 22.664062 46.671875 22.386719 46.355469 22.308594 45.804688 C 22.238281 45.289062 22.101562 44.777344 21.9375 44.277344 C 21.894531 44.136719 21.679688 44.023438 21.523438 43.945312 C 20.898438 43.632812 20.230469 43.394531 19.640625 43.035156 C 18.710938 42.472656 18.824219 41.558594 19.660156 41 C 19.59375 41.253906 19.503906 41.457031 19.464844 41.671875 C 19.421875 41.910156 19.316406 42.304688 19.421875 42.378906 C 19.789062 42.632812 20.230469 42.777344 20.648438 42.964844 C 20.679688 42.511719 20.777344 42.050781 20.71875 41.613281 C 20.664062 41.195312 20.511719 40.730469 19.914062 40.796875 C 20.246094 40.707031 20.550781 40.660156 20.859375 40.605469 C 22.097656 40.382812 22.207031 40.632812 22.550781 39.574219 C 22.589844 39.375 22.628906 39.179688 22.710938 38.933594 C 23.414062 38.808594 24.070312 38.707031 24.730469 38.671875 C 24.945312 38.664062 25.292969 38.78125 25.371094 38.941406 C 25.640625 39.46875 25.8125 40.046875 26.019531 40.652344 C 26.09375 41.300781 26.601562 41.085938 26.988281 41.1875 C 27.308594 41.378906 27.589844 41.566406 27.886719 41.789062 C 28.046875 41.992188 28.191406 42.160156 28.332031 42.375 C 28.371094 42.953125 28.4375 43.484375 28.433594 44.015625 C 28.429688 44.207031 28.289062 44.503906 28.140625 44.558594 C 27.722656 44.710938 27.269531 44.761719 26.828125 44.851562 M 22.550781 43.703125 C 22.550781 43.703125 22.554688 43.699219 22.554688 43.789062 C 22.632812 43.972656 22.671875 44.1875 22.796875 44.335938 C 23.1875 44.792969 24.695312 45.144531 25.261719 44.921875 C 25.363281 44.882812 25.503906 44.804688 25.519531 44.722656 C 25.660156 43.925781 26.285156 43.683594 26.933594 43.453125 C 27.296875 43.324219 27.449219 42.960938 27.222656 42.722656 C 26.484375 41.949219 25.941406 40.886719 24.675781 40.796875 C 23.914062 40.742188 23.140625 40.660156 22.609375 41.398438 C 22.546875 41.488281 22.441406 41.589844 22.34375 41.601562 C 21.859375 41.667969 21.882812 42.011719 21.847656 42.363281 C 21.824219 42.582031 21.703125 42.792969 21.609375 43.003906 C 21.554688 43.125 21.390625 43.265625 21.421875 43.351562 C 21.46875 43.484375 21.617188 43.644531 21.753906 43.671875 C 22.011719 43.726562 22.285156 43.695312 22.550781 43.703125 Z M 22.550781 43.703125 "/>
<path style=" stroke:none;fill-rule:nonzero;fill:rgb(99.215686%,99.607843%,94.509804%);fill-opacity:1;" d="M 27.871094 41.753906 C 27.589844 41.566406 27.308594 41.378906 26.984375 41.144531 C 26.628906 40.933594 26.324219 40.769531 26.019531 40.605469 C 25.8125 40.046875 25.640625 39.46875 25.371094 38.941406 C 25.292969 38.78125 24.945312 38.664062 24.730469 38.671875 C 24.070312 38.707031 23.414062 38.808594 22.710938 38.886719 C 22.429688 38.707031 22.152344 38.554688 21.976562 38.328125 C 21.886719 38.21875 21.914062 37.90625 22.011719 37.785156 C 22.421875 37.285156 22.871094 36.8125 23.328125 36.355469 C 23.605469 36.078125 24.5 36.183594 24.765625 36.476562 C 24.84375 36.558594 24.980469 36.585938 25.074219 36.65625 C 25.351562 36.871094 25.652344 37.066406 25.882812 37.324219 C 26.074219 37.542969 26.164062 37.847656 26.328125 38.097656 C 26.476562 38.320312 26.671875 38.503906 26.441406 38.800781 C 26.382812 38.875 26.453125 39.085938 26.523438 39.199219 C 26.671875 39.441406 26.847656 39.667969 27.03125 39.882812 C 27.203125 40.085938 27.394531 40.269531 27.570312 40.453125 C 28.421875 40.199219 29.238281 40.300781 29.683594 41.347656 C 29.753906 41.507812 29.871094 41.703125 30.015625 41.769531 C 30.433594 41.957031 30.46875 42.277344 30.554688 42.675781 C 30.753906 43.554688 30.1875 43.898438 29.621094 44.289062 C 29.359375 44.46875 29.121094 44.6875 28.847656 44.847656 C 28.597656 44.992188 28.324219 45.113281 28.046875 45.1875 C 27.753906 45.265625 27.441406 45.273438 27.136719 45.308594 C 26.851562 45.339844 26.671875 45.273438 26.824219 44.894531 C 27.269531 44.761719 27.722656 44.710938 28.140625 44.558594 C 28.289062 44.503906 28.429688 44.207031 28.433594 44.015625 C 28.4375 43.484375 28.371094 42.953125 28.363281 42.351562 C 28.78125 41.554688 28.148438 41.828125 27.871094 41.753906 Z M 27.871094 41.753906 "/>
<path style=" stroke:none;fill-rule:nonzero;fill:rgb(99.215686%,99.607843%,94.509804%);fill-opacity:1;" d="M 19.660156 40.953125 C 18.824219 41.558594 18.710938 42.472656 19.640625 43.035156 C 20.230469 43.394531 20.898438 43.632812 21.523438 43.945312 C 21.679688 44.023438 21.894531 44.136719 21.9375 44.277344 C 22.101562 44.777344 22.238281 45.289062 22.308594 45.804688 C 22.386719 46.355469 22.664062 46.671875 23.222656 46.6875 C 24.007812 46.710938 24.730469 46.554688 25.351562 45.914062 C 25.535156 45.6875 25.664062 45.5 25.789062 45.308594 C 25.789062 45.308594 25.847656 45.308594 25.875 45.308594 C 25.957031 45.738281 26.109375 46.179688 26.035156 46.585938 C 25.96875 46.960938 25.597656 47.195312 25.148438 47.148438 C 25.089844 47.140625 25.03125 47.132812 24.976562 47.148438 C 24.71875 47.214844 24.460938 47.289062 24.203125 47.363281 C 24.355469 47.574219 24.507812 47.785156 24.699219 48.050781 C 24.546875 48.316406 24.390625 48.59375 23.871094 48.4375 C 23.507812 48.332031 23.054688 48.332031 22.699219 48.449219 C 22.09375 48.644531 21.953125 48.09375 21.601562 47.894531 C 21.550781 47.867188 21.59375 47.625 21.628906 47.488281 C 21.785156 46.917969 22.136719 46.363281 21.398438 45.867188 C 21.203125 45.734375 21.261719 45.238281 21.199219 44.910156 C 21.164062 44.707031 21.117188 44.511719 21.074219 44.3125 C 20.863281 44.390625 20.652344 44.472656 20.441406 44.550781 C 20.273438 44.613281 20.078125 44.757812 19.933594 44.71875 C 19.277344 44.550781 18.59375 44.40625 18.011719 44.089844 C 17.730469 43.9375 17.664062 43.410156 17.480469 43.0625 C 17.253906 42.628906 17.386719 42.394531 17.753906 42.058594 C 17.972656 41.859375 17.867188 41.289062 17.875 40.882812 C 17.875 40.75 17.78125 40.613281 17.726562 40.476562 C 17.78125 40.449219 17.839844 40.421875 17.894531 40.394531 C 17.980469 40.597656 18.121094 40.792969 18.144531 41 C 18.199219 41.433594 18.171875 41.878906 18.21875 42.3125 C 18.238281 42.5 18.359375 42.675781 18.554688 42.835938 C 18.671875 42.046875 18.777344 41.253906 18.90625 40.464844 C 18.933594 40.316406 19.011719 40.109375 19.125 40.058594 C 19.625 39.835938 20.125 39.550781 20.695312 39.933594 C 20.8125 40.007812 21.148438 39.953125 21.230469 39.847656 C 21.574219 39.394531 21.996094 39.398438 22.507812 39.558594 C 22.207031 40.632812 22.097656 40.382812 20.859375 40.605469 C 20.550781 40.660156 20.246094 40.707031 19.894531 40.824219 C 19.789062 40.910156 19.722656 40.929688 19.660156 40.953125 M 18.84375 43.621094 C 18.859375 43.707031 18.851562 43.820312 18.902344 43.875 C 18.941406 43.914062 19.058594 43.882812 19.289062 43.882812 C 19.09375 43.734375 19.003906 43.671875 18.84375 43.621094 Z M 18.84375 43.621094 "/>
<path style=" stroke:none;fill-rule:nonzero;fill:rgb(90.980393%,70.19608%,75.294119%);fill-opacity:1;" d="M 64.070312 43.421875 C 63.433594 43.585938 62.800781 43.757812 62.15625 43.804688 C 61.382812 43.863281 60.597656 43.789062 59.820312 43.828125 C 58.824219 43.875 57.957031 43.484375 57.136719 43.042969 C 56.199219 42.535156 55.304688 41.941406 54.457031 41.296875 C 53.988281 40.9375 53.625 40.421875 53.28125 39.925781 C 52.761719 39.183594 52.261719 38.417969 51.828125 37.621094 C 51.648438 37.289062 51.605469 36.859375 51.589844 36.46875 C 51.558594 35.710938 51.914062 35.460938 52.675781 35.589844 C 53.21875 35.6875 53.546875 35.9375 53.855469 36.433594 C 54.617188 37.644531 55.363281 38.886719 56.441406 39.878906 C 57.335938 40.695312 58.394531 41.171875 59.539062 41.53125 C 60.890625 41.953125 62.199219 41.867188 63.511719 41.429688 C 63.617188 41.394531 63.742188 41.417969 63.90625 41.410156 C 63.898438 41.660156 63.820312 41.90625 63.796875 42.15625 C 63.785156 42.28125 63.882812 42.414062 63.914062 42.546875 C 63.972656 42.820312 64.015625 43.097656 64.070312 43.421875 Z M 64.070312 43.421875 "/>
<path style=" stroke:none;fill-rule:nonzero;fill:rgb(90.980393%,70.588237%,76.078433%);fill-opacity:1;" d="M 66.039062 41.222656 C 66.269531 41.132812 66.503906 41.085938 66.902344 41.007812 C 67.363281 40.585938 67.621094 40.601562 67.882812 41.253906 C 67.679688 41.410156 67.476562 41.523438 67.207031 41.613281 C 66.964844 41.679688 66.789062 41.773438 66.613281 41.867188 C 66.421875 41.667969 66.234375 41.464844 66.039062 41.222656 Z M 66.039062 41.222656 "/>
<path style=" stroke:none;fill-rule:nonzero;fill:rgb(90.980393%,70.588237%,76.078433%);fill-opacity:1;" d="M 66.625 41.902344 C 66.789062 41.773438 66.964844 41.679688 67.167969 41.613281 C 67.09375 41.816406 67 41.992188 66.875 42.191406 C 66.777344 42.121094 66.707031 42.027344 66.625 41.902344 Z M 66.625 41.902344 "/>
<path style=" stroke:none;fill-rule:nonzero;fill:rgb(90.980393%,70.588237%,76.078433%);fill-opacity:1;" d="M 66.824219 42.683594 C 66.84375 42.671875 66.84375 42.730469 66.84375 42.757812 C 66.832031 42.753906 66.820312 42.722656 66.824219 42.683594 Z M 66.824219 42.683594 "/>
<path style=" stroke:none;fill-rule:nonzero;fill:rgb(90.980393%,70.588237%,76.078433%);fill-opacity:1;" d="M 68.15625 40.949219 C 67.875 40.445312 68.148438 40.449219 68.550781 40.578125 C 68.449219 40.71875 68.320312 40.832031 68.15625 40.949219 Z M 68.15625 40.949219 "/>
<path style=" stroke:none;fill-rule:nonzero;fill:rgb(98.431373%,90.588236%,95.294118%);fill-opacity:1;" d="M 57.9375 67.105469 C 57.925781 67.089844 57.914062 67.074219 57.898438 67.058594 C 57.910156 67.0625 57.917969 67.070312 57.933594 67.089844 C 57.9375 67.105469 57.9375 67.105469 57.9375 67.105469 Z M 57.9375 67.105469 "/>
<path style=" stroke:none;fill-rule:nonzero;fill:rgb(75.294119%,53.333336%,52.549022%);fill-opacity:1;" d="M 56.085938 57.652344 C 55.859375 58.707031 55.410156 59.519531 54.273438 59.738281 C 53.367188 59.910156 52.617188 59.570312 51.867188 59.066406 C 51.070312 58.019531 50.699219 56.878906 50.917969 55.613281 C 51.070312 54.753906 51.296875 53.925781 52.078125 53.324219 C 52.851562 52.730469 53.59375 52.855469 54.390625 53.160156 C 55.574219 53.617188 55.945312 54.648438 56.136719 55.730469 C 56.246094 56.332031 56.109375 56.976562 56.085938 57.652344 Z M 56.085938 57.652344 "/>
<path style=" stroke:none;fill-rule:nonzero;fill:rgb(75.294119%,53.333336%,52.941179%);fill-opacity:1;" d="M 33.105469 59.054688 C 32.058594 59.644531 30.699219 59.332031 30.128906 58.625 C 29.980469 58.4375 29.898438 58.199219 29.757812 57.957031 C 29.332031 56.507812 29.355469 55.09375 30.019531 53.765625 C 30.363281 53.078125 31.058594 52.734375 31.804688 52.5625 C 33.382812 52.203125 34.234375 53.371094 34.570312 54.472656 C 34.988281 55.84375 34.792969 57.136719 34.019531 58.324219 C 33.824219 58.625 33.4375 58.796875 33.105469 59.054688 Z M 33.105469 59.054688 "/>
<path style=" stroke:none;fill-rule:nonzero;fill:rgb(96.470588%,88.627452%,73.333335%);fill-opacity:1;" d="M 43.816406 56.621094 C 44.660156 57.140625 44.8125 57.585938 44.5 58.5 C 44.324219 59.007812 43.464844 59.402344 42.785156 59.277344 C 42.320312 59.191406 41.847656 59.113281 41.390625 58.996094 C 40.988281 58.890625 40.828125 58.609375 40.820312 58.183594 C 40.800781 56.90625 41.476562 56.339844 42.804688 56.53125 C 43.125 56.578125 43.453125 56.578125 43.816406 56.621094 Z M 43.816406 56.621094 "/>
<path style=" stroke:none;fill-rule:nonzero;fill:rgb(98.431373%,98.039216%,90.980393%);fill-opacity:1;" d="M 22.554688 43.699219 C 22.285156 43.695312 22.011719 43.726562 21.753906 43.671875 C 21.617188 43.644531 21.46875 43.484375 21.421875 43.351562 C 21.390625 43.265625 21.554688 43.125 21.609375 43.003906 C 21.703125 42.792969 21.824219 42.582031 21.847656 42.363281 C 21.882812 42.011719 21.859375 41.667969 22.34375 41.601562 C 22.441406 41.589844 22.546875 41.488281 22.609375 41.398438 C 23.140625 40.660156 23.914062 40.742188 24.675781 40.796875 C 25.941406 40.886719 26.484375 41.949219 27.222656 42.722656 C 27.449219 42.960938 27.296875 43.324219 26.933594 43.453125 C 26.285156 43.683594 25.660156 43.925781 25.519531 44.722656 C 25.503906 44.804688 25.363281 44.882812 25.261719 44.921875 C 24.695312 45.144531 23.1875 44.792969 22.796875 44.335938 C 22.671875 44.1875 22.632812 43.972656 22.59375 43.75 C 22.722656 43.808594 22.816406 43.902344 22.902344 44 C 23.503906 44.65625 25.078125 44.628906 25.59375 43.910156 C 25.949219 43.410156 26.222656 42.832031 25.925781 42.210938 C 25.601562 41.523438 24.992188 41.144531 24.253906 41.082031 C 23.191406 40.988281 22.253906 42.105469 22.457031 43.144531 C 22.492188 43.328125 22.523438 43.515625 22.554688 43.699219 Z M 22.554688 43.699219 "/>
<path style=" stroke:none;fill-rule:nonzero;fill:rgb(98.431373%,98.039216%,90.980393%);fill-opacity:1;" d="M 19.660156 41 C 19.722656 40.929688 19.789062 40.910156 19.871094 40.863281 C 20.511719 40.730469 20.664062 41.195312 20.71875 41.613281 C 20.777344 42.050781 20.679688 42.511719 20.648438 42.964844 C 20.230469 42.777344 19.789062 42.632812 19.421875 42.378906 C 19.316406 42.304688 19.421875 41.910156 19.464844 41.671875 C 19.503906 41.457031 19.59375 41.253906 19.660156 41 Z M 19.660156 41 "/>
<path style=" stroke:none;fill-rule:nonzero;fill:rgb(99.215686%,98.823529%,94.509804%);fill-opacity:1;" d="M 26.019531 40.652344 C 26.324219 40.769531 26.628906 40.933594 26.941406 41.140625 C 26.601562 41.085938 26.09375 41.300781 26.019531 40.652344 Z M 26.019531 40.652344 "/>
<path style=" stroke:none;fill-rule:nonzero;fill:rgb(99.215686%,98.823529%,94.509804%);fill-opacity:1;" d="M 27.886719 41.789062 C 28.148438 41.828125 28.78125 41.554688 28.363281 42.304688 C 28.191406 42.160156 28.046875 41.992188 27.886719 41.789062 Z M 27.886719 41.789062 "/>
<path style=" stroke:none;fill-rule:nonzero;fill:rgb(99.215686%,98.823529%,94.509804%);fill-opacity:1;" d="M 25.75 45.316406 C 25.664062 45.5 25.535156 45.6875 25.367188 45.878906 C 25.453125 45.695312 25.582031 45.507812 25.75 45.316406 Z M 25.75 45.316406 "/>
<path style=" stroke:none;fill-rule:nonzero;fill:rgb(99.215686%,98.823529%,94.509804%);fill-opacity:1;" d="M 18.882812 43.613281 C 19.003906 43.671875 19.09375 43.734375 19.289062 43.882812 C 19.058594 43.882812 18.941406 43.914062 18.902344 43.875 C 18.851562 43.820312 18.859375 43.707031 18.882812 43.613281 Z M 18.882812 43.613281 "/>
<path style=" stroke:none;fill-rule:nonzero;fill:rgb(96.862745%,88.627452%,72.156864%);fill-opacity:1;" d="M 22.554688 43.703125 C 22.523438 43.515625 22.492188 43.328125 22.457031 43.144531 C 22.253906 42.105469 23.191406 40.988281 24.253906 41.082031 C 24.992188 41.144531 25.601562 41.523438 25.925781 42.210938 C 26.222656 42.832031 25.949219 43.410156 25.59375 43.910156 C 25.078125 44.628906 23.503906 44.65625 22.902344 44 C 22.816406 43.902344 22.722656 43.808594 22.59375 43.707031 C 22.554688 43.699219 22.550781 43.703125 22.554688 43.703125 Z M 22.554688 43.703125 "/>
</g>
</svg>
