<?xml version="1.0" encoding="UTF-8"?>
<svg xmlns="http://www.w3.org/2000/svg" xmlns:xlink="http://www.w3.org/1999/xlink" width="85px" height="85px" viewBox="0 0 85 85" version="1.1">
<g id="surface1">
<path style=" stroke:none;fill-rule:nonzero;fill:rgb(99.607843%,89.411765%,94.509804%);fill-opacity:1;" d="M 85.085938 37.730469 C 85.117188 40.925781 85.117188 44.082031 85.117188 47.296875 C 84.898438 47.621094 85.023438 47.945312 84.988281 48.242188 C 84.511719 51.988281 83.476562 55.574219 82.003906 59.050781 C 80.8125 61.859375 79.332031 64.503906 77.546875 66.976562 C 74.914062 70.621094 71.804688 73.785156 68.175781 76.457031 C 65.511719 78.417969 62.679688 80.066406 59.648438 81.367188 C 55.644531 83.085938 51.457031 84.136719 47.125 84.605469 C 44.707031 84.867188 42.296875 84.851562 39.871094 84.730469 C 35.992188 84.535156 32.246094 83.726562 28.582031 82.507812 C 26.542969 81.828125 24.574219 80.960938 22.660156 79.953125 C 19.542969 78.316406 16.683594 76.316406 14.035156 74.011719 C 12.082031 72.316406 10.355469 70.410156 8.765625 68.371094 C 6.515625 65.492188 4.671875 62.378906 3.226562 59.019531 C 2.035156 56.25 1.207031 53.375 0.585938 50.4375 C 0.351562 49.332031 0.234375 48.203125 0.144531 47.039062 C 0.117188 44.074219 0.117188 41.148438 0.117188 38.164062 C 0.257812 37.972656 0.214844 37.792969 0.234375 37.621094 C 0.542969 34.351562 1.34375 31.199219 2.476562 28.113281 C 3.011719 26.667969 3.628906 25.261719 4.304688 23.886719 C 5.046875 22.386719 5.929688 20.964844 6.828125 19.550781 C 8.714844 16.59375 11.050781 14.019531 13.605469 11.640625 C 15.847656 9.550781 18.328125 7.765625 20.984375 6.226562 C 24.742188 4.054688 28.714844 2.433594 32.953125 1.503906 C 35.316406 0.984375 37.707031 0.613281 40.136719 0.507812 C 41.136719 0.464844 42.132812 0.390625 43.132812 0.410156 C 47.894531 0.503906 52.535156 1.28125 57.039062 2.878906 C 60.6875 4.175781 64.082031 5.945312 67.273438 8.121094 C 68.847656 9.195312 70.292969 10.433594 71.714844 11.703125 C 74.765625 14.433594 77.285156 17.605469 79.40625 21.082031 C 80.921875 23.558594 82.15625 26.1875 83.09375 28.953125 C 83.710938 30.773438 84.179688 32.636719 84.605469 34.507812 C 84.84375 35.550781 84.953125 36.625 85.085938 37.730469 Z M 85.085938 37.730469 "/>
<path style=" stroke:none;fill-rule:nonzero;fill:rgb(100%,100%,100%);fill-opacity:1;" d="M 85.117188 37.710938 C 84.667969 37.539062 84.867188 37.078125 84.800781 36.746094 C 84.589844 35.679688 84.445312 34.601562 84.195312 33.539062 C 83.59375 30.96875 82.84375 28.457031 81.757812 26.042969 C 81.175781 24.753906 80.539062 23.5 79.859375 22.257812 C 78.234375 19.28125 76.183594 16.632812 73.914062 14.121094 C 72.390625 12.429688 70.683594 10.945312 68.914062 9.542969 C 67.046875 8.0625 65.035156 6.765625 62.898438 5.667969 C 61.421875 4.910156 59.9375 4.179688 58.402344 3.5625 C 55.777344 2.515625 53.074219 1.742188 50.285156 1.269531 C 48.550781 0.976562 46.808594 0.777344 45.046875 0.664062 C 43.875 0.589844 42.703125 0.554688 41.539062 0.59375 C 39.707031 0.652344 37.878906 0.832031 36.0625 1.109375 C 33.917969 1.4375 31.808594 1.886719 29.742188 2.539062 C 28.667969 2.875 27.617188 3.296875 26.5625 3.699219 C 25.0625 4.273438 23.667969 5.050781 22.199219 5.683594 C 21.855469 5.832031 21.566406 6.097656 21.238281 6.285156 C 18.738281 7.714844 16.410156 9.375 14.261719 11.300781 C 11.691406 13.601562 9.367188 16.113281 7.417969 18.964844 C 6.363281 20.511719 5.367188 22.101562 4.535156 23.773438 C 3.210938 26.445312 2.097656 29.203125 1.394531 32.121094 C 0.9375 34.015625 0.523438 35.914062 0.34375 37.859375 C 0.332031 37.960938 0.304688 38.046875 0.160156 38.101562 C 0.117188 25.605469 0.117188 13.097656 0.105469 0.589844 C 0.105469 0.21875 0.144531 0.101562 0.566406 0.101562 C 28.601562 0.117188 56.636719 0.117188 84.671875 0.101562 C 85.105469 0.101562 85.125 0.242188 85.125 0.597656 C 85.113281 12.949219 85.117188 25.304688 85.117188 37.710938 Z M 85.117188 37.710938 "/>
<path style=" stroke:none;fill-rule:nonzero;fill:rgb(100%,100%,100%);fill-opacity:1;" d="M 0.117188 47.058594 C 0.316406 47.03125 0.339844 47.171875 0.347656 47.339844 C 0.417969 48.875 0.777344 50.359375 1.089844 51.859375 C 1.535156 54.003906 2.199219 56.082031 3.011719 58.101562 C 3.703125 59.8125 4.507812 61.480469 5.425781 63.097656 C 6.859375 65.617188 8.53125 67.964844 10.414062 70.148438 C 12.207031 72.230469 14.242188 74.066406 16.421875 75.75 C 18.167969 77.105469 20.007812 78.316406 21.9375 79.378906 C 22.96875 79.945312 24.007812 80.507812 25.109375 80.957031 C 26.421875 81.492188 27.71875 82.0625 29.066406 82.496094 C 31.714844 83.347656 34.414062 83.953125 37.175781 84.324219 C 39.792969 84.671875 42.421875 84.753906 45.042969 84.625 C 47.949219 84.484375 50.820312 83.984375 53.640625 83.234375 C 56.105469 82.578125 58.5 81.738281 60.8125 80.644531 C 63.136719 79.546875 65.363281 78.292969 67.445312 76.789062 C 68.886719 75.746094 70.265625 74.621094 71.597656 73.429688 C 74.078125 71.21875 76.164062 68.671875 78.0625 65.972656 C 79.214844 64.332031 80.1875 62.570312 81.0625 60.757812 C 82.195312 58.40625 83.101562 55.972656 83.78125 53.453125 C 84.28125 51.589844 84.710938 49.707031 84.882812 47.777344 C 84.898438 47.628906 84.847656 47.460938 85.070312 47.359375 C 85.117188 59.78125 85.113281 72.210938 85.125 84.640625 C 85.125 85.011719 85.085938 85.128906 84.664062 85.128906 C 56.628906 85.113281 28.59375 85.113281 0.558594 85.128906 C 0.125 85.128906 0.105469 84.988281 0.109375 84.632812 C 0.117188 72.128906 0.117188 59.621094 0.117188 47.058594 Z M 0.117188 47.058594 "/>
<path style=" stroke:none;fill-rule:nonzero;fill:rgb(99.607843%,99.607843%,99.607843%);fill-opacity:1;" d="M 34.605469 20.769531 C 34.734375 20.785156 34.820312 20.785156 34.949219 20.785156 C 35.050781 20.738281 35.109375 20.671875 35.183594 20.660156 C 36.390625 20.472656 37.589844 20.148438 38.875 20.410156 C 40.394531 20.3125 41.875 20.320312 43.402344 20.328125 C 43.5625 20.503906 43.480469 20.664062 43.398438 20.816406 C 42.542969 22.410156 42.132812 24.113281 42.167969 25.914062 C 42.222656 28.683594 43.886719 30.996094 47.019531 31.019531 C 48.234375 31.03125 49.386719 30.796875 50.492188 30.316406 C 50.972656 30.105469 51.320312 30.183594 51.644531 30.609375 C 52.550781 31.804688 53.726562 32.523438 55.273438 32.523438 C 55.765625 32.523438 55.957031 32.882812 56.136719 33.253906 C 56.730469 34.46875 57.675781 35.363281 58.828125 36.023438 C 60.894531 37.210938 62.953125 36.652344 64.578125 35.25 C 64.792969 35.066406 64.957031 34.808594 65.304688 34.746094 C 65.84375 34.976562 65.804688 35.503906 65.921875 35.898438 C 66.203125 36.824219 66.386719 37.777344 66.582031 38.726562 C 66.644531 39.042969 66.648438 39.378906 66.628906 39.703125 C 66.601562 40.222656 66.902344 40.371094 67.316406 40.292969 C 68.683594 40.039062 70.023438 40.328125 71.375 40.425781 C 71.574219 40.441406 71.738281 40.542969 71.894531 40.65625 C 72.054688 40.769531 72.210938 40.875 72.175781 41.113281 C 72.140625 41.355469 71.957031 41.410156 71.769531 41.453125 C 70.875 41.660156 69.96875 41.636719 69.078125 41.507812 C 68.390625 41.410156 67.746094 41.554688 67.09375 41.679688 C 66.746094 41.746094 66.632812 42.03125 66.648438 42.332031 C 66.683594 43.132812 66.6875 43.914062 66.445312 44.699219 C 66.316406 45.125 66.558594 45.507812 66.984375 45.71875 C 67.5 45.972656 68.050781 46.128906 68.617188 46.171875 C 69.148438 46.210938 69.601562 46.464844 70.09375 46.609375 C 70.296875 46.671875 70.582031 46.78125 70.496094 47.074219 C 70.425781 47.308594 70.25 47.507812 69.9375 47.46875 C 69.160156 47.371094 68.371094 47.332031 67.605469 47.171875 C 67.066406 47.058594 66.578125 47.222656 66.070312 47.265625 C 65.871094 47.28125 65.765625 47.46875 65.714844 47.675781 C 65.550781 48.335938 65.34375 48.984375 65.003906 49.585938 C 64.476562 50.523438 64.605469 50.953125 65.597656 51.382812 C 66.421875 51.742188 67.257812 52.078125 68.035156 52.535156 C 68.132812 52.589844 68.273438 52.617188 68.328125 52.699219 C 68.542969 53.015625 68.976562 53.34375 68.6875 53.738281 C 68.425781 54.097656 67.976562 53.972656 67.585938 53.796875 C 66.550781 53.328125 65.507812 52.878906 64.46875 52.417969 C 63.828125 52.132812 63.382812 52.441406 62.960938 52.890625 C 62.296875 53.609375 61.585938 54.269531 60.847656 54.917969 C 60.351562 55.351562 59.839844 55.726562 59.28125 56.046875 C 58.328125 56.589844 57.246094 56.824219 56.25 57.273438 C 55.59375 57.566406 54.914062 57.820312 54.238281 58.085938 C 53.292969 58.460938 52.316406 58.734375 51.300781 58.769531 C 50.917969 58.78125 50.597656 58.941406 50.242188 59.007812 C 47.511719 59.515625 44.746094 59.566406 41.988281 59.453125 C 39.8125 59.363281 37.648438 59.078125 35.476562 58.898438 C 34.21875 58.792969 32.984375 58.539062 31.757812 58.277344 C 31.3125 58.183594 30.832031 57.996094 30.386719 57.757812 C 29.9375 57.511719 29.371094 57.46875 28.886719 57.238281 C 28.269531 56.945312 27.605469 56.730469 27.023438 56.378906 C 26.109375 55.832031 25.109375 55.417969 24.261719 54.789062 C 23.691406 54.367188 23.164062 53.863281 22.570312 53.445312 C 21.96875 53.019531 21.066406 52.90625 20.410156 53.402344 C 19.480469 54.101562 18.46875 54.691406 17.507812 55.355469 C 17.210938 55.558594 17 55.578125 16.777344 55.289062 C 16.546875 54.992188 16.5625 54.695312 16.847656 54.476562 C 17.664062 53.863281 18.371094 53.109375 19.371094 52.742188 C 20.21875 52.433594 20.660156 51.65625 20.382812 51.09375 C 20.207031 50.738281 19.984375 50.390625 19.71875 50.089844 C 19.371094 49.699219 19.339844 49.132812 18.933594 48.777344 C 18.734375 48.601562 18.542969 48.46875 18.269531 48.503906 C 17.402344 48.617188 16.515625 48.628906 15.703125 49.011719 C 15.339844 49.183594 15.078125 48.980469 14.9375 48.710938 C 14.804688 48.457031 14.886719 48.1875 15.210938 48.058594 C 15.777344 47.832031 16.328125 47.535156 16.914062 47.375 C 18.09375 47.058594 18.316406 46.832031 17.867188 45.730469 C 17.609375 45.089844 17.769531 44.421875 17.46875 43.789062 C 17.105469 43.027344 16.804688 42.753906 15.996094 42.851562 C 14.953125 42.980469 13.910156 43.089844 12.863281 43.183594 C 12.550781 43.210938 12.21875 43.152344 12.140625 42.769531 C 12.035156 42.277344 12.402344 42.042969 12.761719 41.945312 C 13.738281 41.6875 14.730469 41.492188 15.75 41.460938 C 16.035156 41.453125 16.324219 41.464844 16.613281 41.460938 C 17.101562 41.453125 17.34375 41.253906 17.332031 40.71875 C 17.300781 39.320312 17.308594 37.902344 17.6875 36.554688 C 18.074219 35.1875 18.527344 33.832031 19.210938 32.566406 C 19.601562 31.851562 19.84375 31.105469 19.667969 30.226562 C 19.3125 28.417969 18.820312 26.605469 19.066406 24.738281 C 19.203125 23.726562 19.492188 22.738281 19.867188 21.789062 C 20.144531 21.082031 20.460938 20.390625 20.917969 19.757812 C 21.621094 18.777344 22.589844 18.453125 23.714844 18.359375 C 24.722656 18.273438 25.695312 18.546875 26.738281 18.59375 C 27.804688 19.050781 28.886719 19.304688 29.925781 19.691406 C 30.699219 19.980469 31.402344 20.410156 32.171875 20.710938 C 32.84375 20.972656 33.453125 21.042969 34.113281 20.796875 C 34.257812 20.742188 34.410156 20.714844 34.605469 20.769531 Z M 34.605469 20.769531 "/>
<path style=" stroke:none;fill-rule:nonzero;fill:rgb(99.607843%,99.607843%,99.607843%);fill-opacity:1;" d="M 67.214844 68.019531 C 67.929688 68.824219 68.695312 69.527344 69.320312 70.355469 C 69.621094 70.753906 69.914062 71.15625 70.21875 71.546875 C 70.375 71.75 70.226562 71.847656 70.125 71.988281 C 69.574219 72.75 68.769531 73.222656 68.046875 73.777344 C 67.191406 74.429688 66.390625 75.152344 65.507812 75.75 C 64.582031 76.375 63.707031 77.074219 62.699219 77.601562 C 61.433594 78.261719 60.183594 78.945312 58.847656 79.441406 C 57.375 79.988281 55.996094 80.746094 54.484375 81.230469 C 52.566406 81.847656 50.621094 82.363281 48.636719 82.628906 C 47.078125 82.839844 45.492188 83.105469 43.890625 82.828125 C 43.308594 82.726562 42.699219 82.785156 42.101562 82.808594 C 40.316406 82.878906 38.527344 82.753906 36.75 82.65625 C 35.550781 82.59375 34.34375 82.453125 33.179688 81.960938 C 32.464844 81.660156 31.613281 81.632812 30.839844 81.417969 C 30.132812 81.226562 29.367188 81.203125 28.761719 80.703125 C 28.683594 80.636719 28.550781 80.625 28.4375 80.613281 C 27.746094 80.535156 27.160156 80.175781 26.535156 79.917969 C 25.6875 79.570312 24.839844 79.242188 24.050781 78.769531 C 23.675781 78.542969 23.296875 78.304688 22.90625 78.117188 C 21.691406 77.535156 20.683594 76.605469 19.425781 76.085938 C 18.820312 75.835938 18.460938 75.242188 17.921875 74.863281 C 16.953125 74.1875 16.070312 73.378906 15.160156 72.617188 C 14.96875 72.460938 14.796875 72.277344 14.644531 72.082031 C 14.167969 71.472656 14.21875 71.335938 14.785156 70.816406 C 15.128906 70.503906 15.402344 70.121094 15.625 69.683594 C 15.949219 69.058594 16.539062 68.613281 17.058594 68.132812 C 18.523438 66.773438 20.179688 65.695312 22.015625 64.898438 C 24.285156 63.910156 26.574219 63.003906 29.128906 63.164062 C 29.753906 63.203125 30.375 63.195312 31.003906 62.984375 C 31.386719 62.859375 31.875 63 32.304688 63.082031 C 33.265625 63.257812 34.210938 63.027344 35.164062 63 C 35.835938 62.980469 36.484375 63 37.152344 63.066406 C 38.023438 63.15625 38.921875 63.320312 39.796875 63.046875 C 39.851562 63.03125 39.902344 62.988281 39.957031 62.988281 C 43.800781 63.183594 47.648438 62.929688 51.492188 63.082031 C 53.007812 63.144531 54.527344 63.097656 56.039062 63.179688 C 58.449219 63.3125 60.726562 63.917969 62.886719 65.027344 C 64.046875 65.625 65.160156 66.289062 66.207031 67.046875 C 66.554688 67.300781 66.933594 67.597656 67.214844 68.019531 Z M 67.214844 68.019531 "/>
<path style=" stroke:none;fill-rule:nonzero;fill:rgb(90.980393%,51.372552%,67.450982%);fill-opacity:1;" d="M 65.367188 34.714844 C 64.632812 35.425781 63.902344 36.070312 62.96875 36.441406 C 61.003906 37.21875 59.273438 36.722656 57.714844 35.4375 C 56.957031 34.808594 56.300781 34.078125 55.925781 33.140625 C 55.792969 32.820312 55.601562 32.675781 55.230469 32.671875 C 53.636719 32.648438 52.40625 31.917969 51.492188 30.640625 C 51.253906 30.308594 51.054688 30.214844 50.640625 30.402344 C 49.140625 31.085938 47.5625 31.378906 45.925781 31.050781 C 43.820312 30.632812 42.621094 29.261719 42.1875 27.226562 C 41.707031 24.972656 42.226562 22.851562 43.230469 20.824219 C 43.300781 20.6875 43.363281 20.550781 43.441406 20.371094 C 44.015625 19.320312 44.742188 18.4375 45.597656 17.65625 C 47.378906 16.027344 49.863281 15.664062 51.800781 16.824219 C 52.519531 17.25 53.148438 17.828125 53.6875 18.484375 C 53.757812 18.570312 53.851562 18.636719 53.972656 18.714844 C 54.929688 19.136719 55.117188 20 55.230469 20.855469 C 55.308594 21.429688 55.417969 21.988281 55.585938 22.539062 C 55.671875 22.824219 55.839844 22.996094 56.140625 23.046875 C 57.136719 23.207031 57.988281 23.675781 58.753906 24.304688 C 59.042969 24.539062 59.3125 24.605469 59.648438 24.449219 C 59.980469 24.292969 60.339844 24.210938 60.714844 24.050781 C 60.828125 23.996094 60.90625 23.964844 61.027344 23.921875 C 61.148438 23.886719 61.230469 23.878906 61.351562 23.863281 C 61.503906 23.859375 61.605469 23.828125 61.75 23.789062 C 61.84375 23.769531 61.898438 23.761719 61.992188 23.753906 C 62.121094 23.746094 62.203125 23.742188 62.332031 23.734375 C 62.464844 23.71875 62.550781 23.683594 62.6875 23.652344 C 63.402344 23.640625 64.097656 23.417969 64.746094 23.902344 C 67.324219 24.761719 68.09375 26.710938 67.832031 29.085938 C 67.597656 31.242188 66.75 33.058594 65.367188 34.714844 Z M 65.367188 34.714844 "/>
<path style=" stroke:none;fill-rule:nonzero;fill:rgb(99.215686%,99.215686%,99.215686%);fill-opacity:1;" d="M 64.527344 21.328125 C 64.558594 21.488281 64.558594 21.613281 64.558594 21.78125 C 64.550781 22.039062 64.582031 22.25 64.59375 22.457031 C 64.605469 22.679688 64.550781 22.882812 64.25 22.953125 C 63.824219 22.714844 63.484375 22.675781 63.195312 23.109375 C 63.097656 23.253906 62.894531 23.253906 62.695312 23.328125 C 62.507812 23.371094 62.359375 23.382812 62.164062 23.378906 C 61.398438 23.457031 60.664062 23.367188 59.949219 23.585938 C 59.261719 23.796875 58.648438 23.386719 57.996094 23.261719 C 57.960938 23.253906 57.910156 23.230469 57.902344 23.203125 C 57.753906 22.640625 57.300781 22.4375 56.816406 22.257812 C 56.730469 22.226562 56.664062 22.125 56.636719 22.035156 C 56.4375 21.296875 56.015625 20.628906 55.894531 19.875 C 55.742188 18.953125 56.253906 18.351562 57.066406 17.933594 C 58.070312 17.417969 59.175781 17.421875 60.207031 17.09375 C 60.765625 16.914062 61.382812 16.960938 61.894531 17.398438 C 62.226562 17.679688 62.679688 17.75 63 18.101562 C 63.835938 19.015625 64.085938 20.1875 64.527344 21.328125 Z M 64.527344 21.328125 "/>
<path style=" stroke:none;fill-rule:nonzero;fill:rgb(97.254902%,94.509804%,96.078432%);fill-opacity:1;" d="M 64.558594 21.316406 C 64.390625 21.351562 64.371094 21.226562 64.316406 21.09375 C 64.035156 20.390625 63.773438 19.671875 63.429688 19 C 63.140625 18.433594 62.742188 17.980469 62.082031 17.707031 C 61.5625 17.496094 61.097656 16.984375 60.527344 17.230469 C 59.617188 17.621094 58.539062 17.285156 57.710938 17.949219 C 57.585938 18.050781 57.386719 18.078125 57.21875 18.09375 C 55.960938 18.21875 55.789062 19.90625 56.316406 20.652344 C 56.492188 20.902344 56.566406 21.136719 56.605469 21.433594 C 56.664062 21.898438 56.796875 22.367188 57.445312 22.292969 C 57.730469 22.257812 57.878906 22.371094 57.863281 22.679688 C 57.84375 23.015625 57.902344 23.277344 58.347656 23.121094 C 58.425781 23.09375 58.558594 23.105469 58.621094 23.160156 C 59.183594 23.652344 59.773438 23.417969 60.390625 23.296875 C 60.925781 23.195312 61.484375 23.238281 62.082031 23.214844 C 62.300781 23.433594 62.238281 23.632812 62.050781 23.859375 C 61.96875 23.902344 61.917969 23.914062 61.828125 23.917969 C 61.671875 23.796875 61.582031 23.875 61.46875 23.984375 C 61.355469 24.023438 61.269531 24.039062 61.140625 24.054688 C 61.015625 23.945312 60.957031 23.996094 60.882812 24.113281 C 60.347656 24.339844 59.828125 24.53125 59.320312 24.746094 C 59.09375 24.84375 58.964844 24.726562 58.820312 24.59375 C 58.011719 23.84375 57.09375 23.328125 55.980469 23.199219 C 55.757812 23.171875 55.554688 23.09375 55.5 22.855469 C 55.367188 22.277344 55.097656 21.734375 55.082031 21.128906 C 55.058594 20.207031 54.734375 19.417969 54.027344 18.757812 C 54.28125 18.710938 54.554688 18.734375 54.816406 18.6875 C 55.167969 18.628906 55.402344 18.4375 55.671875 18.152344 C 56.039062 17.769531 56.53125 17.382812 57.132812 17.328125 C 57.863281 17.265625 58.550781 17.007812 59.257812 16.878906 C 60.207031 16.707031 61.183594 16.667969 62.144531 16.792969 C 62.355469 16.820312 62.609375 17.050781 62.710938 17.25 C 62.992188 17.824219 63.519531 18.152344 63.929688 18.59375 C 64.09375 18.769531 64.257812 18.949219 64.261719 19.183594 C 64.28125 19.890625 64.492188 20.570312 64.558594 21.316406 Z M 64.558594 21.316406 "/>
<path style=" stroke:none;fill-rule:nonzero;fill:rgb(96.078432%,92.156863%,94.509804%);fill-opacity:1;" d="M 34.636719 20.742188 C 34.242188 20.875 33.894531 21.109375 33.457031 21.148438 C 32.585938 21.222656 31.875 20.800781 31.160156 20.445312 C 30.386719 20.058594 29.582031 19.785156 28.78125 19.484375 C 28.121094 19.234375 27.363281 19.191406 26.800781 18.636719 C 28.097656 18.535156 29.292969 19.007812 30.425781 19.527344 C 31.707031 20.109375 32.941406 20.699219 34.390625 20.5625 C 34.492188 20.550781 34.578125 20.597656 34.636719 20.742188 Z M 34.636719 20.742188 "/>
<path style=" stroke:none;fill-rule:nonzero;fill:rgb(98.431373%,95.686275%,97.647059%);fill-opacity:1;" d="M 62.0625 23.898438 C 62.054688 23.695312 62.09375 23.5 62.132812 23.257812 C 62.292969 23.214844 62.453125 23.214844 62.664062 23.214844 C 63.191406 23.269531 63.589844 23.019531 64.054688 22.871094 C 64.363281 22.886719 64.453125 22.75 64.445312 22.496094 C 64.441406 22.296875 64.476562 22.09375 64.527344 21.859375 C 64.832031 22.476562 64.921875 23.148438 64.785156 23.894531 C 64.097656 23.765625 63.402344 23.789062 62.65625 23.808594 C 62.539062 23.796875 62.476562 23.800781 62.390625 23.84375 C 62.277344 23.871094 62.191406 23.886719 62.0625 23.898438 Z M 62.0625 23.898438 "/>
<path style=" stroke:none;fill-rule:nonzero;fill:rgb(96.078432%,92.156863%,94.509804%);fill-opacity:1;" d="M 38.910156 20.398438 C 37.625 20.335938 36.375 20.726562 35.042969 20.785156 C 35.007812 20.730469 35.015625 20.628906 35.035156 20.625 C 35.789062 20.546875 36.34375 19.722656 37.238281 20.09375 C 37.609375 20.25 38.078125 20.179688 38.5 20.210938 C 38.644531 20.222656 38.8125 20.171875 38.910156 20.398438 Z M 38.910156 20.398438 "/>
<path style=" stroke:none;fill-rule:nonzero;fill:rgb(95.294118%,73.333335%,83.137256%);fill-opacity:1;" d="M 43.835938 27.386719 C 43.21875 25.34375 43.710938 23.476562 44.566406 21.671875 C 45.136719 20.464844 45.882812 19.394531 46.957031 18.558594 C 48.695312 17.207031 50.726562 17.496094 52.105469 19.144531 C 52.96875 20.175781 53.496094 21.382812 53.855469 22.675781 C 53.945312 22.996094 54.007812 23.242188 53.628906 23.445312 C 53.253906 23.644531 53.011719 23.648438 52.6875 23.320312 C 51.96875 22.597656 51.050781 22.441406 50.128906 22.796875 C 49.160156 23.167969 48.578125 23.953125 48.53125 25 C 48.484375 25.960938 48.914062 26.742188 49.75 27.269531 C 49.816406 27.308594 49.886719 27.359375 49.957031 27.363281 C 50.71875 27.40625 50.589844 27.957031 50.59375 28.445312 C 50.59375 28.65625 50.484375 28.761719 50.308594 28.832031 C 49.332031 29.230469 48.367188 29.570312 47.269531 29.597656 C 45.601562 29.632812 44.46875 28.976562 43.835938 27.386719 Z M 43.835938 27.386719 "/>
<path style=" stroke:none;fill-rule:nonzero;fill:rgb(95.294118%,73.333335%,83.137256%);fill-opacity:1;" d="M 61.042969 31.839844 C 61.917969 31.3125 62.214844 30.523438 62.101562 29.605469 C 61.992188 28.679688 61.414062 28.082031 60.511719 27.851562 C 60.246094 27.785156 60.152344 27.683594 60.164062 27.433594 C 60.171875 27.339844 60.167969 27.242188 60.15625 27.144531 C 60.035156 26.121094 60.019531 26.078125 61 25.753906 C 62.128906 25.378906 63.277344 25.125 64.484375 25.496094 C 65.527344 25.816406 66.230469 26.679688 66.300781 27.753906 C 66.46875 30.214844 65.605469 32.285156 63.886719 33.980469 C 61.703125 36.128906 59.300781 35.277344 57.75 33.207031 C 57.738281 33.195312 57.734375 33.171875 57.730469 33.15625 C 57.65625 32.863281 57.101562 32.691406 57.46875 32.304688 C 57.984375 31.753906 58.390625 31.695312 58.976562 31.996094 C 59.679688 32.355469 60.351562 32.234375 61.042969 31.839844 Z M 61.042969 31.839844 "/>
<path style=" stroke:none;fill-rule:nonzero;fill:rgb(96.078432%,74.901962%,83.137256%);fill-opacity:1;" d="M 55.832031 24.171875 C 57.773438 24.460938 59.261719 26.265625 59.144531 28.097656 C 59.015625 30.144531 57.097656 32.003906 54.835938 31.609375 C 52.316406 31.171875 50.96875 28.570312 52.074219 26.257812 C 52.714844 24.917969 53.960938 24.082031 55.832031 24.171875 Z M 55.832031 24.171875 "/>
<path style=" stroke:none;fill-rule:nonzero;fill:rgb(96.862745%,74.509805%,83.529413%);fill-opacity:1;" d="M 50.042969 26.191406 C 49.058594 25.1875 49.796875 23.917969 50.765625 23.707031 C 51.195312 23.613281 51.558594 23.722656 51.878906 23.996094 C 52.101562 24.183594 52.167969 24.378906 51.941406 24.628906 C 51.597656 25.015625 51.296875 25.4375 51.078125 25.910156 C 50.765625 26.59375 50.746094 26.59375 50.042969 26.191406 Z M 50.042969 26.191406 "/>
<path style=" stroke:none;fill-rule:nonzero;fill:rgb(97.254902%,74.117649%,83.92157%);fill-opacity:1;" d="M 59.519531 30.300781 C 59.800781 29.921875 59.921875 29.519531 60.042969 29.121094 C 60.136719 28.8125 60.304688 28.839844 60.519531 28.957031 C 60.984375 29.210938 61.21875 29.847656 61.039062 30.34375 C 60.871094 30.816406 60.175781 31.246094 59.714844 31.160156 C 59.238281 31.074219 59.179688 30.851562 59.519531 30.300781 Z M 59.519531 30.300781 "/>
<path style=" stroke:none;fill-rule:nonzero;fill:rgb(98.431373%,95.686275%,97.647059%);fill-opacity:1;" d="M 61.476562 24.007812 C 61.453125 23.890625 61.414062 23.746094 61.582031 23.703125 C 61.6875 23.679688 61.742188 23.746094 61.78125 23.878906 C 61.695312 23.949219 61.605469 23.980469 61.476562 24.007812 Z M 61.476562 24.007812 "/>
<path style=" stroke:none;fill-rule:nonzero;fill:rgb(98.431373%,95.686275%,97.647059%);fill-opacity:1;" d="M 60.894531 24.132812 C 60.894531 24.003906 60.785156 23.804688 60.984375 23.757812 C 61.097656 23.726562 61.078125 23.882812 61.09375 24.011719 C 61.039062 24.082031 60.984375 24.105469 60.894531 24.132812 Z M 60.894531 24.132812 "/>
<path style=" stroke:none;fill-rule:nonzero;fill:rgb(97.254902%,94.509804%,96.078432%);fill-opacity:1;" d="M 62.394531 23.867188 C 62.394531 23.75 62.433594 23.660156 62.585938 23.78125 C 62.542969 23.828125 62.484375 23.855469 62.394531 23.867188 Z M 62.394531 23.867188 "/>
<path style=" stroke:none;fill-rule:nonzero;fill:rgb(97.254902%,94.509804%,96.078432%);fill-opacity:1;" d="M 64.089844 22.824219 C 63.742188 23.289062 63.285156 23.371094 62.742188 23.246094 C 62.882812 23.058594 63.113281 23.03125 63.269531 22.785156 C 63.433594 22.519531 63.8125 22.296875 64.089844 22.824219 Z M 64.089844 22.824219 "/>
</g>
</svg>
